<?xml version="1.0" encoding="UTF-8"?>
<svg version="1.1" xmlns="http://www.w3.org/2000/svg" width="536" height="466">
<path d="M0 0 C3.5003394 0.43569625 5.04081279 1.75366097 7.375 4.3125 C12.26608679 9.65560666 18.33811491 12.83814252 24.75 16 C25.45664795 16.35030273 26.1632959 16.70060547 26.89135742 17.06152344 C32.16692261 19.64955931 37.48344119 21.97049676 43 24 C43.83273437 24.32484375 44.66546875 24.6496875 45.5234375 24.984375 C65.18990322 32.4818546 86.26989815 35.60506105 106.91674805 39.16186523 C124.02955652 42.14887744 137.55108989 44.5825539 148.3125 59.125 C152.11985841 66.45952161 152.94738281 75.8607379 150.86328125 83.80078125 C147.65127071 91.98341443 139.80507075 96.12556953 132.78955078 100.79101562 C129.79197842 102.81611499 126.86943299 104.94404426 123.9375 107.0625 C105.9020359 120 105.9020359 120 103 120 C102.67 120.99 102.34 121.98 102 123 C99.671875 124.68359375 99.671875 124.68359375 96.75 126.4375 C92.92381105 128.74872495 89.47999891 131.20041879 86 134 C83.48493378 135.78915272 80.92954849 137.51785601 78.375 139.25 C73.70225184 142.43846345 69.05756244 145.64762884 64.5 149 C59.85878502 152.40119571 55.16336455 155.71791645 50.4375 159 C49.38175781 159.74056641 49.38175781 159.74056641 48.3046875 160.49609375 C43.23246061 164 43.23246061 164 41 164 C41 164.66 41 165.32 41 166 C38.52173266 167.83759301 35.89597102 169.3802575 33.265625 170.9921875 C31.0847112 172.33308426 28.92785127 173.71389416 26.796875 175.1328125 C16.20714809 182.06473519 6.64052997 185.46318484 -6 183 C-12.92715926 181.41300866 -19.31054783 178.26411969 -25 174 C-25 173.34 -25 172.68 -25 172 C-25.70253906 171.7628125 -26.40507812 171.525625 -27.12890625 171.28125 C-30.52096557 169.76751469 -33.03244648 167.81525072 -35.9375 165.5 C-40.4483916 161.95264977 -45.00369822 158.50350178 -49.6875 155.1875 C-50.2556543 154.7848291 -50.82380859 154.3821582 -51.40917969 153.96728516 C-52.61646255 153.1117121 -53.82382194 152.25624704 -55.03125 151.40087891 C-58.76388901 148.74489148 -62.4748604 146.05883586 -66.1875 143.375 C-66.95803711 142.818125 -67.72857422 142.26125 -68.52246094 141.6875 C-75.23152571 136.83646304 -81.92975955 131.97066803 -88.6171875 127.08984375 C-93.11069093 123.81414487 -97.61584097 120.55695767 -102.14794922 117.33496094 C-108.20619418 113.02724296 -114.18896435 108.63586398 -120.125 104.16015625 C-126.24757131 99.55990906 -132.34432524 95.00476089 -138.875 91 C-144.04220864 87.55519424 -147.04050179 83.65808694 -148.625 77.6171875 C-149.78381828 69.91587432 -147.9188196 63.38991462 -144.125 56.6875 C-135.8780443 46.25752661 -126.66099608 42.27729416 -113.75 40.25 C-112.5434375 40.0430249 -111.336875 39.8360498 -110.09375 39.62280273 C-104.4088421 38.66032137 -98.71925244 37.79555139 -93 37.0625 C-76.07474602 34.80295728 -59.12756938 30.58705082 -43 25 C-42.0615625 24.69707031 -41.123125 24.39414063 -40.15625 24.08203125 C-26.02929637 19.32457187 -11.14729345 12.12928959 -1 1 C-0.67 0.67 -0.34 0.34 0 0 Z " fill="#4889BF" transform="translate(267,52)"/>
<path d="M0 0 C3.48330216 0.64505596 6.09432866 1.98217268 9 4 C9 4.66 9 5.32 9 6 C9.68707031 6.23074219 10.37414062 6.46148437 11.08203125 6.69921875 C14.6512056 8.29029647 17.59245248 10.46692772 20.6875 12.8125 C22.01239219 13.80162385 23.33794325 14.78986562 24.6640625 15.77734375 C25.36305664 16.29925293 26.06205078 16.82116211 26.78222656 17.35888672 C31.42453186 20.79411087 36.13223418 24.14043991 40.83276367 27.49536133 C42.25204147 28.51469421 43.66230461 29.54672898 45.06201172 30.59277344 C46.94166751 32.0064144 46.94166751 32.0064144 48.83251953 33.07128906 C50.48046875 34.1328125 50.48046875 34.1328125 53 37 C53.83053232 41.00126851 53.7873323 44.92570234 53.75 49 C53.78545712 51.26310304 53.82576976 53.52613556 53.87109375 55.7890625 C53.88769043 56.86833008 53.90428711 57.94759766 53.92138672 59.05957031 C54.24674176 71.22906146 56.87522317 82.97272858 64.828125 92.44140625 C66 94 66 94 66 96 C66.53625 96.226875 67.0725 96.45375 67.625 96.6875 C71.27199812 98.70294633 74.43465016 101.36981319 77.3203125 104.375 C84.24654892 111.07573105 92.6843546 116.5434664 100.54711914 122.10107422 C105.17644404 125.383187 109.72103418 128.76854873 114.25 132.1875 C119.42477573 136.09063953 124.61998762 139.94156652 129.96875 143.60546875 C131.71389554 144.80357828 133.42339762 146.05331424 135.125 147.3125 C141.95966464 151.32415099 149.74699752 152.09576963 157.453125 150.48828125 C165.93117344 147.88648495 172.77087264 142.66232004 179.87207031 137.53076172 C181.98238807 136.01266943 184.10855133 134.52025736 186.2421875 133.03515625 C200.86246285 122.84475889 215.09277165 112.14338677 229 101 C229.52795166 100.58661377 230.05590332 100.17322754 230.59985352 99.74731445 C233.86326488 97.13526435 236.34594991 94.51751447 238.6875 91.0625 C239.24824219 90.24910156 239.80898438 89.43570313 240.38671875 88.59765625 C248.33003955 75.80756344 248.43021968 61.44224031 248.35791016 46.78613281 C248.45910707 38.61966374 248.45910707 38.61966374 251.4140625 35.234375 C254 34 254 34 256 34 C256 33.34 256 32.68 256 32 C264.74748295 24.60478495 274.24590582 21.19030127 285.64453125 21.55078125 C290.41553713 22.1895073 294.55394089 23.53783781 298 27 C304.93857201 41.29302057 297.95805602 64.11834509 293.22558594 78.32470703 C289.44010025 88.98677131 284.10356203 98.51173539 278 108 C277.39414062 108.96808594 276.78828125 109.93617188 276.1640625 110.93359375 C273.25502516 115.4816253 273.25502516 115.4816253 272 117 C271.34 117 270.68 117 270 117 C269.34 118.65 268.68 120.3 268 122 C267.34 122 266.68 122 266 122 C265.938125 122.556875 265.87625 123.11375 265.8125 123.6875 C264.90278651 126.27668455 263.6061042 127.49750531 261.6652832 129.37866211 C259.62376843 131.36630316 257.63233187 133.39987621 255.63671875 135.43359375 C253.98711051 137.1016924 252.33736726 138.76965754 250.6875 140.4375 C249.87087891 141.27087891 249.05425781 142.10425781 248.21289062 142.96289062 C243.94299433 147.26681 239.68019102 151.155425 234.75170898 154.68579102 C232.25844705 156.55634558 230.16772207 158.76702877 228 161 C211.74657534 175 211.74657534 175 208 175 C208 175.66 208 176.32 208 177 C205.98828125 178.62109375 205.98828125 178.62109375 203.3125 180.4375 C202.44238281 181.03433594 201.57226562 181.63117188 200.67578125 182.24609375 C198.15184464 183.90046972 195.58784543 185.44803531 193 187 C191.62529325 187.87528731 190.25316495 188.75462993 188.8828125 189.63671875 C181.23330725 194.55028721 173.5856214 199.40171349 165.5625 203.6875 C164.95486816 204.01387451 164.34723633 204.34024902 163.72119141 204.67651367 C159.10390068 207.09018697 155.43200781 208.15098074 150.25 208.25 C149.05117188 208.28867187 149.05117188 208.28867187 147.828125 208.328125 C141.01259625 207.53737305 135.11181916 204.16963165 129.3125 200.6875 C128.59553955 200.26090088 127.8785791 199.83430176 127.13989258 199.39477539 C114.13406721 191.55631305 101.42786339 183.10790187 89.3984375 173.8359375 C87.22409221 172.17153638 85.00968225 170.60765822 82.75 169.0625 C81.8425 168.381875 80.935 167.70125 80 167 C80 166.34 80 165.68 80 165 C79.43796875 164.92007813 78.8759375 164.84015625 78.296875 164.7578125 C75.23919983 163.7489877 73.59163454 162.07494327 71.25 159.875 C70.3734375 159.06289063 69.496875 158.25078125 68.59375 157.4140625 C67.7378125 156.61742187 66.881875 155.82078125 66 155 C64.58929269 153.74327834 63.17319665 152.49256015 61.75 151.25 C61.11578125 150.69441406 60.4815625 150.13882813 59.828125 149.56640625 C58.08003624 148.06857806 56.29617669 146.62695936 54.5 145.1875 C53.675 144.465625 52.85 143.74375 52 143 C52 142.34 52 141.68 52 141 C51.360625 140.731875 50.72125 140.46375 50.0625 140.1875 C48 139 48 139 47 136 C46.40574219 135.70996094 45.81148437 135.41992188 45.19921875 135.12109375 C42.26221042 133.62389768 40.84779668 131.64647411 38.8125 129.0625 C38.02746094 128.07378906 37.24242187 127.08507812 36.43359375 126.06640625 C35.63050781 125.05449219 34.82742187 124.04257812 34 123 C32.45918964 121.16594693 30.9175441 119.33259513 29.375 117.5 C2.51797781 84.49891034 -3.39840183 43.41374858 -1 2 C-0.67 1.34 -0.34 0.68 0 0 Z " fill="#3869A0" transform="translate(119,211)"/>
<path d="M0 0 C0.98535082 7.39033025 1.14808402 14.637577 1.14526367 22.08789062 C1.14862228 23.37197311 1.1519809 24.6560556 1.15544128 25.97904968 C1.1642158 29.47694819 1.16661653 32.97482218 1.16725707 36.47273064 C1.16797096 38.66304144 1.17011161 40.85334612 1.17275429 43.0436554 C1.18198393 50.69854117 1.18609191 58.35340962 1.18530273 66.00830078 C1.18470162 73.12300746 1.19526608 80.2376384 1.2110464 87.35232592 C1.22415097 93.48083872 1.22948545 99.60932683 1.22884732 105.73785353 C1.22859333 109.38941591 1.23139055 113.04091079 1.24202538 116.69245911 C1.2535669 120.76572809 1.24894173 124.83882847 1.24291992 128.91210938 C1.24853943 130.10926071 1.25415894 131.30641205 1.25994873 132.5398407 C1.21613461 144.22274698 -0.64409976 154.51034458 -8.4453125 163.703125 C-13.14635679 167.96746026 -18.75958932 170 -25 170 C-25.66 169.34 -26.32 168.68 -27 168 C-27.928125 167.7009375 -28.85625 167.401875 -29.8125 167.09375 C-33.11886093 165.95921439 -35.23250156 164.61021756 -38 162.5 C-38.95777344 161.78199219 -39.91554688 161.06398437 -40.90234375 160.32421875 C-42.43568359 159.17373047 -42.43568359 159.17373047 -44 158 C-46.18339991 156.43126591 -48.37010887 154.86851177 -50.5625 153.3125 C-63.6430976 143.99195668 -76.64361054 134.55861858 -89.6171875 125.08984375 C-94.11069093 121.81414487 -98.61584097 118.55695767 -103.14794922 115.33496094 C-109.20619418 111.02724296 -115.18896435 106.63586398 -121.125 102.16015625 C-127.24757131 97.55990906 -133.34432524 93.00476089 -139.875 89 C-145.04220864 85.55519424 -148.04050179 81.65808694 -149.625 75.6171875 C-150.78381828 67.91587432 -148.9188196 61.38991462 -145.125 54.6875 C-136.8780443 44.25752661 -127.66099608 40.27729416 -114.75 38.25 C-113.5434375 38.0430249 -112.336875 37.8360498 -111.09375 37.62280273 C-105.4088421 36.66032137 -99.71925244 35.79555139 -94 35.0625 C-77.07474602 32.80295728 -60.12756938 28.58705082 -44 23 C-43.0615625 22.69707031 -42.123125 22.39414063 -41.15625 22.08203125 C-28.83400952 17.93233556 -17.38494645 11.78378339 -7 4 C-1.25368732 0 -1.25368732 0 0 0 Z " fill="#0A1938" transform="translate(268,54)"/>
<path d="M0 0 C1.26463995 2.5292799 1.12940982 4.30006362 1.1328125 7.12890625 C1.13410156 8.16466797 1.13539063 9.20042969 1.13671875 10.26757812 C1.13285156 11.35490234 1.12898438 12.44222656 1.125 13.5625 C1.12886719 14.62275391 1.13273437 15.68300781 1.13671875 16.77539062 C1.11437965 34.88123254 1.11437965 34.88123254 -3.95703125 40.9765625 C-7.71459613 44.6982042 -11.94670256 47.73507711 -16.26464844 50.77197266 C-18.13125231 52.09288114 -19.97644758 53.44052219 -21.8203125 54.79296875 C-23.08811279 55.71673473 -24.35633394 56.63992341 -25.625 57.5625 C-26.22892578 58.0044873 -26.83285156 58.44647461 -27.45507812 58.90185547 C-31.77004265 62 -31.77004265 62 -34 62 C-34 62.66 -34 63.32 -34 64 C-35.79296875 65.4375 -35.79296875 65.4375 -38.1875 67 C-38.96480469 67.515625 -39.74210937 68.03125 -40.54296875 68.5625 C-42.9699247 69.98240427 -45.36607951 71.02689971 -48 72 C-48 72.66 -48 73.32 -48 74 C-50.0946498 75.52310081 -52.19154801 76.92622451 -54.375 78.3125 C-66.29209007 86.06799829 -77.7172731 94.49842063 -89.0625 103.0625 C-97.24416415 109.2324123 -105.57537411 115.16713979 -114 121 C-114.77762695 121.54285645 -115.55525391 122.08571289 -116.35644531 122.64501953 C-118.72934247 124.29659069 -121.11287048 125.93158523 -123.5 127.5625 C-124.57580322 128.31370117 -124.57580322 128.31370117 -125.67333984 129.08007812 C-135.32504299 135.59950513 -144.39471565 137.10467413 -156 136 C-163.19189392 134.26807453 -169.07614672 130.28934527 -175 126 C-176.28003906 125.08541016 -176.28003906 125.08541016 -177.5859375 124.15234375 C-182.3732392 120.70246874 -187.10098672 117.17743089 -191.8125 113.625 C-196.92779673 109.76844121 -202.11938648 106.03336411 -207.3684082 102.36181641 C-209.56786317 100.8103389 -211.68974513 99.31254176 -213.58984375 97.3984375 C-215.50412312 95.50006626 -217.67206194 94.35824061 -220 93 C-222.28573518 91.49672048 -224.5543507 89.98069456 -226.8125 88.4375 C-227.40998047 88.03853516 -228.00746094 87.63957031 -228.62304688 87.22851562 C-230.11903456 86.2044052 -231.56465592 85.10750561 -233 84 C-233 83.34 -233 82.68 -233 82 C-234.04607422 81.64615234 -234.04607422 81.64615234 -235.11328125 81.28515625 C-238.5571264 79.75196944 -241.20832959 77.74311884 -244.1875 75.4375 C-247.92771244 72.45571326 -247.92771244 72.45571326 -252 70 C-252 69.34 -252 68.68 -252 68 C-253.06347656 67.62875 -253.06347656 67.62875 -254.1484375 67.25 C-257.34380095 65.84929273 -259.83516412 64.09045554 -262.625 62 C-265.39000188 59.93950544 -268.13034848 57.91310101 -271 56 C-271 55.34 -271 54.68 -271 54 C-271.70511719 53.75636719 -272.41023438 53.51273438 -273.13671875 53.26171875 C-281.87644695 49.41051519 -292.88125884 41.03022768 -297.9375 32.875 C-298.94149198 30.15831581 -299.65808734 27.87206634 -300 25 C-300.07605469 24.36835938 -300.15210938 23.73671875 -300.23046875 23.0859375 C-300.51111493 19.03553048 -300.39021239 17.50170164 -297.8125 14.1875 C-290.26295254 8.31562976 -283.26540219 7.09505667 -273.8046875 8.2734375 C-267.84027193 9.3748801 -263.11477055 11.81045207 -258 15 C-257.37351562 15.37769531 -256.74703125 15.75539062 -256.1015625 16.14453125 C-254.69001398 17.0292342 -253.33680894 18.00596258 -252 19 C-252 19.66 -252 20.32 -252 21 C-251.27683594 21.25007813 -250.55367187 21.50015625 -249.80859375 21.7578125 C-246.75280269 23.10933066 -244.61979 24.73382512 -242.0625 26.875 C-238.50290221 29.84227169 -234.86538396 32.44491568 -231 35 C-228.08692127 37.05953556 -225.19996148 39.15475196 -222.3125 41.25 C-221.51086426 41.83064209 -220.70922852 42.41128418 -219.88330078 43.00952148 C-218.2953779 44.15998812 -216.70780148 45.31093313 -215.12060547 46.46240234 C-213.39589567 47.71294601 -211.66897776 48.96044389 -209.94140625 50.20703125 C-204.64420285 54.03682062 -199.40863109 57.94264083 -194.1875 61.875 C-187.893397 66.61106067 -181.55491767 71.27483349 -175.11328125 75.80859375 C-173.22396557 77.13846338 -171.34360758 78.48135444 -169.48046875 79.84765625 C-161.79938162 85.32261678 -153.48450105 88.1550593 -144 87 C-137.10445363 85.77141951 -132.12281584 83.03098075 -126.546875 78.875 C-124.03532666 77.02600735 -121.46782444 75.38404581 -118.8125 73.75 C-112.84836135 69.99918193 -107.23000009 65.82963618 -101.57421875 61.63671875 C-97.89004053 58.90730255 -94.14154653 56.27834315 -90.375 53.6640625 C-86.88348441 51.21770454 -83.44762393 48.69657692 -80.00390625 46.18359375 C-76.57531843 43.69129129 -73.13449153 41.21675901 -69.6875 38.75 C-69.11290039 38.3377417 -68.53830078 37.9254834 -67.94628906 37.50073242 C-64.34407512 34.9264546 -60.68353503 32.45569002 -57 30 C-55.26323944 28.76057267 -53.53400676 27.5105284 -51.8125 26.25 C-50.85601562 25.55261719 -49.89953125 24.85523438 -48.9140625 24.13671875 C-47.05037682 22.77018247 -45.19059919 21.39829001 -43.3359375 20.01953125 C-14.59742152 -1.21645179 -14.59742152 -1.21645179 0 0 Z " fill="#4987BC" transform="translate(418,162)"/>
<path d="M0 0 C3.48330216 0.64505596 6.09432866 1.98217268 9 4 C9 4.66 9 5.32 9 6 C9.68707031 6.23074219 10.37414062 6.46148437 11.08203125 6.69921875 C14.6512056 8.29029647 17.59245248 10.46692772 20.6875 12.8125 C22.01239219 13.80162385 23.33794325 14.78986562 24.6640625 15.77734375 C25.36305664 16.29925293 26.06205078 16.82116211 26.78222656 17.35888672 C31.42453186 20.79411087 36.13223418 24.14043991 40.83276367 27.49536133 C42.25204147 28.51469421 43.66230461 29.54672898 45.06201172 30.59277344 C46.94166751 32.0064144 46.94166751 32.0064144 48.83251953 33.07128906 C50.48046875 34.1328125 50.48046875 34.1328125 53 37 C53.83053232 41.00126851 53.7873323 44.92570234 53.75 49 C53.78545712 51.26310304 53.82576976 53.52613556 53.87109375 55.7890625 C53.88769043 56.86833008 53.90428711 57.94759766 53.92138672 59.05957031 C54.24674176 71.22906146 56.87522317 82.97272858 64.828125 92.44140625 C66 94 66 94 66 96 C66.53625 96.226875 67.0725 96.45375 67.625 96.6875 C71.27199812 98.70294633 74.43465016 101.36981319 77.3203125 104.375 C84.24654892 111.07573105 92.6843546 116.5434664 100.54711914 122.10107422 C105.17644404 125.383187 109.72103418 128.76854873 114.25 132.1875 C119.42477573 136.09063953 124.61998762 139.94156652 129.96875 143.60546875 C131.71389554 144.80357828 133.42339762 146.05331424 135.125 147.3125 C138.72728544 149.42688493 141.91880066 150.15561393 146 151 C146 151.66 146 152.32 146 153 C146.78246094 153 147.56492187 153 148.37109375 153 C151.58072917 153 154.79036458 153 158 153 C159.34136367 152.34964186 160.67532254 151.6837045 162 151 C161.41512359 155.00748653 160.15605425 157.85736768 158.0625 161.3125 C157.53785156 162.19550781 157.01320313 163.07851563 156.47265625 163.98828125 C155.98667969 164.65214844 155.50070312 165.31601562 155 166 C154.34 166 153.68 166 153 166 C152.79375 166.556875 152.5875 167.11375 152.375 167.6875 C148.32186998 174.50412777 140.66503577 177.69105865 133.5 180.25 C121.13192402 182.88820016 109.42825711 181.1332597 98 176 C95.99387163 174.67590531 93.99328102 173.34335719 92 172 C89.61211427 171.0018749 89.61211427 171.0018749 87.3125 170.375 C84.33863611 169.5018448 82.65101969 168.76734646 80 167 C80 166.34 80 165.68 80 165 C79.43796875 164.92007813 78.8759375 164.84015625 78.296875 164.7578125 C75.23919983 163.7489877 73.59163454 162.07494327 71.25 159.875 C70.3734375 159.06289063 69.496875 158.25078125 68.59375 157.4140625 C67.7378125 156.61742187 66.881875 155.82078125 66 155 C64.58929269 153.74327834 63.17319665 152.49256015 61.75 151.25 C61.11578125 150.69441406 60.4815625 150.13882813 59.828125 149.56640625 C58.08003624 148.06857806 56.29617669 146.62695936 54.5 145.1875 C53.675 144.465625 52.85 143.74375 52 143 C52 142.34 52 141.68 52 141 C51.360625 140.731875 50.72125 140.46375 50.0625 140.1875 C48 139 48 139 47 136 C46.40574219 135.70996094 45.81148437 135.41992188 45.19921875 135.12109375 C42.26221042 133.62389768 40.84779668 131.64647411 38.8125 129.0625 C38.02746094 128.07378906 37.24242187 127.08507812 36.43359375 126.06640625 C35.63050781 125.05449219 34.82742187 124.04257812 34 123 C32.45918964 121.16594693 30.9175441 119.33259513 29.375 117.5 C2.51797781 84.49891034 -3.39840183 43.41374858 -1 2 C-0.67 1.34 -0.34 0.68 0 0 Z " fill="#0C1A38" transform="translate(119,211)"/>
<path d="M0 0 C0.62648437 0.37769531 1.25296875 0.75539062 1.8984375 1.14453125 C3.30998602 2.0292342 4.66319106 3.00596258 6 4 C6 4.66 6 5.32 6 6 C6.72316406 6.25007812 7.44632813 6.50015625 8.19140625 6.7578125 C11.24719731 8.10933066 13.38021 9.73382512 15.9375 11.875 C19.49709779 14.84227169 23.13461604 17.44491568 27 20 C29.91307873 22.05953556 32.80003852 24.15475196 35.6875 26.25 C36.48913574 26.83064209 37.29077148 27.41128418 38.11669922 28.00952148 C39.7046221 29.15998812 41.29219852 30.31093313 42.87939453 31.46240234 C44.60410433 32.71294601 46.33102224 33.96044389 48.05859375 35.20703125 C53.35579464 39.0368188 58.59144332 42.94254455 63.8125 46.875 C68.95784721 50.74802544 74.13196086 54.57263404 79.375 58.3125 C79.94468506 58.71976318 80.51437012 59.12702637 81.10131836 59.54663086 C83.74179113 61.42577563 86.40023458 63.26783375 89.09375 65.0703125 C90.0115625 65.68648438 90.929375 66.30265625 91.875 66.9375 C93.07769531 67.72447266 93.07769531 67.72447266 94.3046875 68.52734375 C94.86414063 69.01332031 95.42359375 69.49929687 96 70 C96 70.99 96 71.98 96 73 C102.02596573 74.0712828 107.88909517 74.09945415 114 74 C114 74.33 114 74.66 114 75 C112.35 75 110.7 75 109 75 C109 89.85 109 104.7 109 120 C92.1055202 120 82.55154093 111.00840832 69.76318359 101.13354492 C63.77823967 96.53487304 57.6563465 92.15752754 51.44506836 87.87036133 C50.77483643 87.40525146 50.10460449 86.9401416 49.4140625 86.4609375 C48.8257666 86.05665527 48.2374707 85.65237305 47.63134766 85.23583984 C45.92934879 83.94647764 44.50478265 82.51095717 43 81 C41.34811165 79.97577216 39.67879754 78.97949814 38 78 C35.71426482 76.49672048 33.4456493 74.98069456 31.1875 73.4375 C30.59001953 73.03853516 29.99253906 72.63957031 29.37695312 72.22851562 C27.88096544 71.2044052 26.43534408 70.10750561 25 69 C25 68.34 25 67.68 25 67 C23.95392578 66.64615234 23.95392578 66.64615234 22.88671875 66.28515625 C19.4428736 64.75196944 16.79167041 62.74311884 13.8125 60.4375 C10.07228756 57.45571326 10.07228756 57.45571326 6 55 C6 54.34 6 53.68 6 53 C5.29101562 52.7525 4.58203125 52.505 3.8515625 52.25 C0.65619905 50.84929273 -1.83516412 49.09045554 -4.625 47 C-7.39000188 44.93950544 -10.13034848 42.91310101 -13 41 C-13 40.34 -13 39.68 -13 39 C-13.70511719 38.75636719 -14.41023438 38.51273438 -15.13671875 38.26171875 C-23.87644695 34.41051519 -34.88125884 26.03022768 -39.9375 17.875 C-40.94149198 15.15831581 -41.65808734 12.87206634 -42 10 C-42.07605469 9.36835938 -42.15210937 8.73671875 -42.23046875 8.0859375 C-42.51111493 4.03553048 -42.39021239 2.50170164 -39.8125 -0.8125 C-27.25112468 -10.58245858 -12.76897637 -7.96267628 0 0 Z " fill="#2D5585" transform="translate(160,177)"/>
<path d="M0 0 C3.91185915 1.49124318 6.8992195 3.22221822 10.25 5.75 C14.53580622 8.94836285 18.88786281 11.93319594 23.41796875 14.7734375 C23.94003906 15.17820312 24.46210938 15.58296875 25 16 C25 16.66 25 17.32 25 18 C25.73347656 18.2578125 26.46695313 18.515625 27.22265625 18.78125 C30.11026493 20.0483863 32.03673175 21.46954089 34.4375 23.5 C40.15401033 28.19177292 46.1272187 32.43849487 52.16796875 36.69580078 C54.0107522 38.00765435 55.83523721 39.34171789 57.65625 40.68359375 C72.79452979 51.89028276 72.79452979 51.89028276 91 54 C99.78550686 51.55103996 106.82030431 47.50519797 114 42 C115.74726046 40.72540271 117.49737186 39.45470636 119.25 38.1875 C120.16652344 37.51847656 121.08304687 36.84945312 122.02734375 36.16015625 C127.06044964 32.50272187 132.13074516 28.89754392 137.19726562 25.28662109 C138.98230251 24.0126308 140.76495971 22.73538319 142.546875 21.45703125 C165.42210086 5.05329489 165.42210086 5.05329489 173 1 C175.30938251 3.30938251 174.1854044 8.90270275 174.1875 12 C174.19974609 12.92167969 174.21199219 13.84335937 174.22460938 14.79296875 C174.24294906 23.46152545 173.38371721 30.70588361 168.5 38.0625 C167.8915625 39.00222656 167.283125 39.94195312 166.65625 40.91015625 C165.83640625 41.94462891 165.83640625 41.94462891 165 43 C164.34 43 163.68 43 163 43 C162.73767578 43.60271729 162.47535156 44.20543457 162.20507812 44.82641602 C160.92168375 47.14125802 159.8183568 48.20062201 157.71875 49.77734375 C156.71642334 50.53785034 156.71642334 50.53785034 155.69384766 51.3137207 C154.96987793 51.84956787 154.2459082 52.38541504 153.5 52.9375 C152.37343994 53.78477661 152.37343994 53.78477661 151.22412109 54.64916992 C143.54773806 60.39731296 135.7660188 66.00161829 127.96972656 71.58544922 C125.30256886 73.50085722 122.65092542 75.43721085 120 77.375 C119.15308594 77.98859375 118.30617188 78.6021875 117.43359375 79.234375 C115.7944479 80.42361084 114.16171911 81.62173606 112.53515625 82.828125 C103.45152904 89.42918111 94.83436982 95.20586327 83.21484375 94.5703125 C69.17287079 92.07926991 56.69297985 80.15889831 45.68383789 71.61035156 C42.3327123 69.00953896 38.94125997 66.48009763 35.5 64 C11.86345962 46.93877832 11.86345962 46.93877832 5 37 C4.4225 36.175 3.845 35.35 3.25 34.5 C-0.45569128 27.08861743 -0.25093442 19.59855178 -0.125 11.5 C-0.11597656 10.39140625 -0.10695312 9.2828125 -0.09765625 8.140625 C-0.07426167 5.42685408 -0.04148175 2.71354455 0 0 Z " fill="#0E1B38" transform="translate(183,257)"/>
<path d="M0 0 C0.62648437 0.37769531 1.25296875 0.75539062 1.8984375 1.14453125 C3.30998602 2.0292342 4.66319106 3.00596258 6 4 C6 4.66 6 5.32 6 6 C6.72316406 6.25007812 7.44632813 6.50015625 8.19140625 6.7578125 C11.24719731 8.10933066 13.38021 9.73382512 15.9375 11.875 C19.49709779 14.84227169 23.13461604 17.44491568 27 20 C29.91307873 22.05953556 32.80003852 24.15475196 35.6875 26.25 C36.48913574 26.83064209 37.29077148 27.41128418 38.11669922 28.00952148 C39.7046221 29.15998812 41.29219852 30.31093313 42.87939453 31.46240234 C44.60410433 32.71294601 46.33102224 33.96044389 48.05859375 35.20703125 C53.35579464 39.0368188 58.59144332 42.94254455 63.8125 46.875 C68.95784721 50.74802544 74.13196086 54.57263404 79.375 58.3125 C79.94468506 58.71976318 80.51437012 59.12702637 81.10131836 59.54663086 C83.74179113 61.42577563 86.40023458 63.26783375 89.09375 65.0703125 C90.0115625 65.68648438 90.929375 66.30265625 91.875 66.9375 C93.07769531 67.72447266 93.07769531 67.72447266 94.3046875 68.52734375 C94.86414063 69.01332031 95.42359375 69.49929687 96 70 C96 70.99 96 71.98 96 73 C102.02596573 74.0712828 107.88909517 74.09945415 114 74 C114 74.33 114 74.66 114 75 C112.35 75 110.7 75 109 75 C109 81.93 109 88.86 109 96 C97.67994536 96 88.92740915 93.16610212 80 86 C80 85.34 80 84.68 80 84 C78.7934375 83.5978125 78.7934375 83.5978125 77.5625 83.1875 C76.716875 82.795625 75.87125 82.40375 75 82 C74.67 81.01 74.34 80.02 74 79 C72.16715557 77.87483915 72.16715557 77.87483915 70 77 C68.66666667 76.33333333 67.33333333 75.66666667 66 75 C66 74.34 66 73.68 66 73 C65.13761719 72.76539063 64.27523437 72.53078125 63.38671875 72.2890625 C59.64263181 70.86397751 56.88033858 68.87225252 53.8125 66.375 C52.6714449 65.47285433 51.52950279 64.57182954 50.38671875 63.671875 C49.82001465 63.22263672 49.25331055 62.77339844 48.66943359 62.31054688 C40.89141977 56.17725753 40.89141977 56.17725753 32.4375 51.0625 C29.21925557 49.34200656 26.78674872 47.04843429 24.125 44.5625 C20.26611259 40.96323192 16.58777927 38.39358998 11.8125 36.16796875 C9.59736145 34.74054111 9.11836716 33.33667351 8 31 C7.113125 30.71125 6.22625 30.4225 5.3125 30.125 C1.06648528 28.68295727 -1.97146374 26.29734126 -5 23 C-5 22.34 -5 21.68 -5 21 C-5.5775 20.87625 -6.155 20.7525 -6.75 20.625 C-9.02335767 19.99351176 -10.9253529 19.11141809 -13 18 C-13 17.34 -13 16.68 -13 16 C-13.70125 15.7525 -14.4025 15.505 -15.125 15.25 C-18.39514548 13.82819762 -21.141122 12.12753712 -24 10 C-24 9.34 -24 8.68 -24 8 C-24.7425 7.731875 -25.485 7.46375 -26.25 7.1875 C-28.89061949 6.04723249 -30.85552844 4.90619694 -33 3 C-33 2.34 -33 1.68 -33 1 C-34.65 0.67 -36.3 0.34 -38 0 C-37.0625 -2.375 -37.0625 -2.375 -35 -5 C-22.98514844 -9.85966557 -10.50534594 -6.55108651 0 0 Z " fill="#1C3A65" transform="translate(160,177)"/>
<path d="M0 0 C-0.60108576 5.65020618 -2.07528683 10.66164461 -4 16 C-4.66 16 -5.32 16 -6 16 C-6.10957031 16.56847656 -6.21914063 17.13695312 -6.33203125 17.72265625 C-8.31266748 24.47535171 -13.35739566 30.02452876 -19 34 C-19.66 34 -20.32 34 -21 34 C-21 34.66 -21 35.32 -21 36 C-22.6796875 37.2890625 -22.6796875 37.2890625 -24.875 38.625 C-25.59429687 39.07101563 -26.31359375 39.51703125 -27.0546875 39.9765625 C-29 41 -29 41 -31 41 C-31 41.66 -31 42.32 -31 43 C-31.66 43 -32.32 43 -33 43 C-33 43.66 -33 44.32 -33 45 C-38.75 48 -38.75 48 -41 48 C-41 48.66 -41 49.32 -41 50 C-41.99 50.53625 -42.98 51.0725 -44 51.625 C-48.71068637 54.31545299 -53.57943958 57.40322497 -57.29785156 61.39233398 C-59.37412555 63.35335869 -61.59180623 64.70231442 -64.03125 66.1875 C-69.79830947 69.79950041 -75.14507288 73.80918747 -80.5 78 C-86.64797546 82.81145906 -92.83444848 87.29859525 -99.49291992 91.38378906 C-102.06090063 93.03926012 -104.43015979 94.83904732 -106.8125 96.75 C-114.64957865 103 -114.64957865 103 -119 103 C-119 103.66 -119 104.32 -119 105 C-120.56116819 105.33951619 -122.12401338 105.67132544 -123.6875 106 C-124.55761719 106.185625 -125.42773438 106.37125 -126.32421875 106.5625 C-129 107 -129 107 -134 107 C-134 100.07 -134 93.14 -134 86 C-136.64 86 -139.28 86 -142 86 C-145 85 -145 85 -147 84 C-147 83.01 -147 82.02 -147 81 C-146.45472656 81.144375 -145.90945313 81.28875 -145.34765625 81.4375 C-136.07165525 83.72082332 -127.89671243 83.88544694 -119 80 C-116.40645385 78.41186335 -113.98501326 76.69224591 -111.546875 74.875 C-109.03532666 73.02600735 -106.46782444 71.38404581 -103.8125 69.75 C-97.84836135 65.99918193 -92.23000009 61.82963618 -86.57421875 57.63671875 C-82.89004053 54.90730255 -79.14154653 52.27834315 -75.375 49.6640625 C-71.88348441 47.21770454 -68.44762393 44.69657692 -65.00390625 42.18359375 C-61.57531843 39.69129129 -58.13449153 37.21675901 -54.6875 34.75 C-54.11290039 34.3377417 -53.53830078 33.9254834 -52.94628906 33.50073242 C-49.34407512 30.9264546 -45.68353503 28.45569002 -42 26 C-40.26323944 24.76057267 -38.53400676 23.5105284 -36.8125 22.25 C-35.85601562 21.55261719 -34.89953125 20.85523438 -33.9140625 20.13671875 C-32.05037682 18.77018247 -30.19059919 17.39829001 -28.3359375 16.01953125 C-6.65681138 0 -6.65681138 0 0 0 Z " fill="#316296" transform="translate(403,166)"/>
<path d="M0 0 C3.53819573 0.57926213 5.25028243 1.84323477 7.75 4.375 C8.36359375 4.98085938 8.9771875 5.58671875 9.609375 6.2109375 C11 8 11 8 11 11 C10.01 11.33 9.02 11.66 8 12 C7.54625 11.195625 7.0925 10.39125 6.625 9.5625 C5.25274335 6.91143428 5.25274335 6.91143428 3 6 C3.350625 6.763125 3.70125 7.52625 4.0625 8.3125 C4.9312457 11.72956643 4.9923586 13.15955307 4.56030273 16.5078125 C3.76818566 24.27156666 3.90488144 32.01866883 3.95540047 39.81298828 C3.97296885 42.61231003 3.98314367 45.41157342 3.99131775 48.2109375 C4.01563217 56.16135143 4.05158035 64.11168519 4.09594727 72.06201172 C4.12268234 76.94407644 4.13975064 81.82609729 4.15081596 86.70822144 C4.15702681 88.5646224 4.16703345 90.42101467 4.18089485 92.27737427 C4.2000492 94.86205719 4.20699726 97.44650583 4.21118164 100.03125 C4.21994324 100.79799545 4.22870483 101.56474091 4.23773193 102.35472107 C4.23074412 106.12374093 4.14568512 107.78147232 2 111 C1.98969254 109.76495728 1.97938507 108.52991455 1.96876526 107.25744629 C1.87090722 95.60470345 1.76816172 83.95201254 1.66066074 72.29935455 C1.60555299 66.30896284 1.55215278 60.31856615 1.50268555 54.328125 C1.45486237 48.54444781 1.40251379 42.7608275 1.34705925 36.97721863 C1.32671682 34.77330445 1.30799075 32.56937473 1.29092598 30.36543274 C1.26670158 27.27286174 1.23667277 24.18039648 1.20532227 21.08789062 C1.1995668 20.18157898 1.19381134 19.27526733 1.18788147 18.3414917 C1.128227 13.1467655 0.74355584 8.14282503 0 3 C-0.99 3.495 -0.99 3.495 -2 4 C-1.34 2.68 -0.68 1.36 0 0 Z " fill="#5181B1" transform="translate(267,52)"/>
<path d="M0 0 C0.66 0.33 1.32 0.66 2 1 C0.45566145 3.92611515 -0.79346604 5.84112772 -3.4375 7.875 C-5.86029767 9.88414929 -6.66814111 10.99210545 -8.0625 13.6875 C-10 17 -10 17 -12 17.8125 C-12.66 17.874375 -13.32 17.93625 -14 18 C-15.34977849 18.63270867 -16.68352881 19.30062468 -18 20 C-19.0828125 20.4640625 -19.0828125 20.4640625 -20.1875 20.9375 C-22.34395107 21.93434552 -22.34395107 21.93434552 -23 25 C-23.66 25.33 -24.32 25.66 -25 26 C-27.98919426 27.88449203 -30.63211994 29.60982417 -33.0625 32.1875 C-35.373445 34.34935177 -36.91202175 34.59368707 -40 35 C-40.99 35.495 -40.99 35.495 -42 36 C-42.66 35.34 -43.32 34.68 -44 34 C-38.59642306 29.89963867 -33.18018184 25.82632907 -27.65234375 21.89453125 C-13.21211459 11.70795966 -13.21211459 11.70795966 0 0 Z " fill="#345B87" transform="translate(351,309)"/>
<path d="M0 0 C7.98648678 3.41471696 15.15241273 9.037386 19.21484375 16.86328125 C22.31059971 25.28804995 22.50926375 33.44920123 20 42 C18.515 42.495 18.515 42.495 17 43 C17.165 41.72125 17.33 40.4425 17.5 39.125 C17.87661786 35.62466934 18.1464844 32.14453045 18.25 28.625 C18.27578125 27.81289062 18.3015625 27.00078125 18.328125 26.1640625 C17.91894089 23.46539587 16.958509 22.82106978 15 21 C14.608125 19.741875 14.21625 18.48375 13.8125 17.1875 C12.27607136 12.67787431 9.64303591 10.78426164 5.7421875 8.2265625 C4 7 4 7 3 5 C0.71573609 4.38479304 0.71573609 4.38479304 -1.9375 4 C-6.78044597 3.21955403 -6.78044597 3.21955403 -9 1 C-5.58670077 -1.14911433 -3.84193044 -1.01043341 0 0 Z " fill="#608BAF" transform="translate(397,96)"/>
<path d="M0 0 C4.52178725 1.10737647 7.82520071 2.46868595 11.82421875 4.9140625 C16.59983846 7.29758544 21.87909276 8.55228487 27 10 C26.80664062 10.62777344 26.61328125 11.25554687 26.4140625 11.90234375 C26.27742188 12.59457031 26.14078125 13.28679687 26 14 C27.35405861 15.60411246 27.35405861 15.60411246 29 17 C29.33 17.99 29.66 18.98 30 20 C30.99 20 31.98 20 33 20 C34.33981486 20.3062434 35.67511887 20.63451555 37 21 C36.67 22.32 36.34 23.64 36 25 C30.94275079 23.32095304 26.81380944 20.39722976 22.4375 17.4375 C21.64480713 16.90463379 20.85211426 16.37176758 20.03540039 15.82275391 C1.71015798 3.42031597 1.71015798 3.42031597 0 0 Z " fill="#456C98" transform="translate(205,381)"/>
<path d="M0 0 C1.98 0.495 1.98 0.495 4 1 C4 1.99 4 2.98 4 4 C3.34 3.34 2.68 2.68 2 2 C2 17.18 2 32.36 2 48 C2.66 48 3.32 48 4 48 C4 53.28 4 58.56 4 64 C-2.95267866 50.09464267 -1.0892588 30.83868217 -1.125 15.625 C-1.12967285 14.32175781 -1.1343457 13.01851562 -1.13916016 11.67578125 C-1.13706543 10.45503906 -1.1349707 9.23429688 -1.1328125 7.9765625 C-1.13168457 6.87393066 -1.13055664 5.77129883 -1.12939453 4.63525391 C-1 2 -1 2 0 0 Z " fill="#908E96" transform="translate(119,211)"/>
<path d="M0 0 C3.48416864 1.1246973 6.40191321 2.38977261 9 5 C11.83175272 10.55797429 11.01433294 16.3403395 10.625 22.375 C10.56828125 23.39722656 10.5115625 24.41945313 10.453125 25.47265625 C10.31238311 27.98255335 10.16104835 30.49133774 10 33 C9.67 33 9.34 33 9 33 C8.34 24.42 7.68 15.84 7 7 C4.03 6.505 4.03 6.505 1 6 C1 5.34 1 4.68 1 4 C-5.90188971 3.16145265 -12.11422188 2.98406552 -19 4 C-13.24126331 -1.44482059 -7.55179767 -0.96068223 0 0 Z " fill="#577796" transform="translate(408,233)"/>
<path d="M0 0 C1.32 0.33 2.64 0.66 4 1 C4 1.66 4 2.32 4 3 C6.97 2.34 9.94 1.68 13 1 C8.83768219 6.68850101 3.82205343 10.11304634 -2 14 C-3.87799605 15.30820949 -5.75312375 16.62054877 -7.625 17.9375 C-9.08333333 18.95833333 -10.54166667 19.97916667 -12 21 C-12.99 20.34 -13.98 19.68 -15 19 C-14.01 19 -13.02 19 -12 19 C-11.67 18.01 -11.34 17.02 -11 16 C-8.04581363 13.3026994 -5.8146658 11.27155527 -2 10 C-0.78368346 6.54310037 0 3.67168136 0 0 Z " fill="#5186B1" transform="translate(402,200)"/>
<path d="M0 0 C3.53819573 0.57926213 5.25028243 1.84323477 7.75 4.375 C8.36359375 4.98085938 8.9771875 5.58671875 9.609375 6.2109375 C11 8 11 8 11 11 C10.01 11.33 9.02 11.66 8 12 C7.54625 11.195625 7.0925 10.39125 6.625 9.5625 C5.25274335 6.91143428 5.25274335 6.91143428 3 6 C3.350625 6.763125 3.70125 7.52625 4.0625 8.3125 C5.13128645 12.51639339 4.7923022 15.57301062 4.29296875 19.83203125 C3.76484058 25.54285719 3.92471923 31.27029661 4 37 C3.67 37 3.34 37 3 37 C2.27731424 33.704392 1.84593017 30.56915488 1.71875 27.19921875 C1.68136719 26.30396484 1.64398438 25.40871094 1.60546875 24.48632812 C1.57066406 23.56271484 1.53585937 22.63910156 1.5 21.6875 C1.26006811 15.40039581 0.87685526 9.23297947 0 3 C-0.99 3.495 -0.99 3.495 -2 4 C-1.34 2.68 -0.68 1.36 0 0 Z " fill="#5181B1" transform="translate(267,52)"/>
<path d="M0 0 C6.50172474 0.28207049 11.88466885 1.52519455 17.93359375 3.8828125 C21.49135672 5.17901659 25.09439171 6.21294221 28.75 7.1875 C29.96171875 7.51105469 31.1734375 7.83460937 32.421875 8.16796875 C35.95952131 8.99058738 39.40094907 9.54319738 43 10 C43 10.33 43 10.66 43 11 C33.00082237 11.17108859 23.66163384 10.68378718 14 8 C14 7.34 14 6.68 14 6 C9.01770224 4.08373163 4.27315333 3.4452885 -1 3 C-0.67 2.01 -0.34 1.02 0 0 Z " fill="#5383A8" transform="translate(300,75)"/>
<path d="M0 0 C0.89332031 0.30164063 1.78664062 0.60328125 2.70703125 0.9140625 C3.60808594 1.21054688 4.50914062 1.50703125 5.4375 1.8125 C6.46810547 2.17214844 6.46810547 2.17214844 7.51953125 2.5390625 C7.51953125 4.5190625 7.51953125 6.4990625 7.51953125 8.5390625 C8.66421875 8.9721875 8.66421875 8.9721875 9.83203125 9.4140625 C12.36672903 10.47509878 14.5502087 11.56973995 16.51953125 13.5390625 C16.84953125 12.5490625 17.17953125 11.5590625 17.51953125 10.5390625 C19.16953125 12.5190625 20.81953125 14.4990625 22.51953125 16.5390625 C21.52953125 16.5390625 20.53953125 16.5390625 19.51953125 16.5390625 C19.51953125 17.1990625 19.51953125 17.8590625 19.51953125 18.5390625 C15.56815362 16.7839841 12.18746583 14.25406526 8.70703125 11.7265625 C8.11599609 11.30052734 7.52496094 10.87449219 6.91601562 10.43554688 C5.72500869 9.57703479 4.53473713 8.71750157 3.34521484 7.85693359 C0.41162617 5.73932038 -2.53482321 3.6398622 -5.48046875 1.5390625 C-2.48046875 -0.4609375 -2.48046875 -0.4609375 0 0 Z " fill="#323549" transform="translate(168.48046875,166.4609375)"/>
<path d="M0 0 C4.875 1.75 4.875 1.75 6 4 C5.34 4 4.68 4 4 4 C4 8.95 4 13.9 4 19 C4.66 18.67 5.32 18.34 6 18 C5.4922736 20.28476878 4.87613564 22.28415942 3.9375 24.4375 C2.94788438 27.14244935 2.83688066 29.14541159 3 32 C0.51272649 27.35708945 -0.12564358 23.62099238 -0.09765625 18.359375 C-0.09443359 17.28945313 -0.09121094 16.21953125 -0.08789062 15.1171875 C-0.07951172 14.00601562 -0.07113281 12.89484375 -0.0625 11.75 C-0.05798828 10.62335938 -0.05347656 9.49671875 -0.04882812 8.3359375 C-0.03705397 5.55723783 -0.0206084 2.77864591 0 0 Z " fill="#4D4D5B" transform="translate(183,257)"/>
<path d="M0 0 C0.66 0.33 1.32 0.66 2 1 C2 3 2 3 -0.4375 5.5 C-1.283125 6.325 -2.12875 7.15 -3 8 C-3.33 8.66 -3.66 9.32 -4 10 C-5.9375 11.0625 -5.9375 11.0625 -8 12 C-10.16666667 12.83333333 -10.16666667 12.83333333 -11 15 C-11 13.02 -11 11.04 -11 9 C-13.05270463 10.84188612 -13.05270463 10.84188612 -14 13 C-16.31 13 -18.62 13 -21 13 C-21 12.67 -21 12.34 -21 12 C-23.97 11.505 -23.97 11.505 -27 11 C-27 10.67 -27 10.34 -27 10 C-26.20078125 9.92523438 -25.4015625 9.85046875 -24.578125 9.7734375 C-15.72760176 8.71386782 -6.51554958 6.51554958 0 0 Z " fill="#445B7D" transform="translate(292,353)"/>
<path d="M0 0 C8.35224592 -0.41458173 16.18076304 0.85088905 24.375 2.375 C26.26025391 2.70757812 26.26025391 2.70757812 28.18359375 3.046875 C38.28192658 4.88293551 38.28192658 4.88293551 42 7 C35.30870551 7.12813117 28.62188208 7.0835807 22 6 C21.67 5.67 21.34 5.34 21 5 C17.21080021 4.34084497 13.41820575 3.75255901 9.61328125 3.19335938 C8.81535156 3.06896484 8.01742188 2.94457031 7.1953125 2.81640625 C6.46328613 2.70756104 5.73125977 2.59871582 4.97705078 2.48657227 C3 2 3 2 0 0 Z " fill="#668CA8" transform="translate(346,88)"/>
<path d="M0 0 C5.45574065 0.28714424 9.06528798 2.65335262 13.53515625 5.52734375 C18.66706929 8.5934788 22.90797324 9.28507822 28.79296875 9.55859375 C31 10 31 10 33 13 C31.50099109 13.08293697 30.00055125 13.14004281 28.5 13.1875 C27.6646875 13.22230469 26.829375 13.25710938 25.96875 13.29296875 C18.8997547 12.59537053 12.9473469 9.0403629 7 5.375 C6.32066406 4.96765625 5.64132813 4.5603125 4.94140625 4.140625 C3.27351834 3.12713979 1.63363548 2.06781902 0 1 C0 0.67 0 0.34 0 0 Z " fill="#557393" transform="translate(241,406)"/>
<path d="M0 0 C0.66 1.32 1.32 2.64 2 4 C6.29 2.68 10.58 1.36 15 0 C13.875 5.625 13.875 5.625 11 8 C11.66 8.33 12.32 8.66 13 9 C11.265625 10.140625 11.265625 10.140625 9 11 C6.859375 10.171875 6.859375 10.171875 4.75 8.75 C4.04359375 8.29109375 3.3371875 7.8321875 2.609375 7.359375 C2.07828125 6.91078125 1.5471875 6.4621875 1 6 C1 5.34 1 4.68 1 4 C-1.475 3.01 -1.475 3.01 -4 2 C-3.34 1.67 -2.68 1.34 -2 1 C-1.34 1.33 -0.68 1.66 0 2 C0 1.34 0 0.68 0 0 Z " fill="#5D80A6" transform="translate(241,220)"/>
<path d="M0 0 C1.32 0.66 2.64 1.32 4 2 C-2.76913244 7.6409437 -10.10230442 13.05115221 -18 17 C-18.66 16.67 -19.32 16.34 -20 16 C-19.4375 14.0625 -19.4375 14.0625 -18 12 C-14.375 11.25 -14.375 11.25 -11 11 C-11.33 10.01 -11.66 9.02 -12 8 C-10.02 8 -8.04 8 -6 8 C-6.33 6.68 -6.66 5.36 -7 4 C-5.02 3.67 -3.04 3.34 -1 3 C-0.67 2.01 -0.34 1.02 0 0 Z " fill="#5A5862" transform="translate(299,332)"/>
<path d="M0 0 C1.98 0.99 1.98 0.99 4 2 C4.625 4.0625 4.625 4.0625 5 6 C5.66 6.33 6.32 6.66 7 7 C7 8.32 7 9.64 7 11 C6.34 11 5.68 11 5 11 C5 11.66 5 12.32 5 13 C4.01 13.33 3.02 13.66 2 14 C2.33 12.68 2.66 11.36 3 10 C2.34 10 1.68 10 1 10 C1 17.92 1 25.84 1 34 C0.67 34 0.34 34 0 34 C0 22.78 0 11.56 0 0 Z " fill="#0A0D24" transform="translate(120,212)"/>
<path d="M0 0 C0 2.69502675 -0.34018581 4.43405592 -1 7 C-1.34578768 8.99788438 -1.68143549 10.99759451 -2 13 C-2.66 13 -3.32 13 -4 13 C-4.33 14.65 -4.66 16.3 -5 18 C-5.33 18 -5.66 18 -6 18 C-6 21.96 -6 25.92 -6 30 C-8.84001311 27.15998689 -8.7150588 24.70409477 -9.03125 20.796875 C-8.94125663 12.74246854 -5.64820108 5.64820108 0 0 Z " fill="#636371" transform="translate(127,104)"/>
<path d="M0 0 C2.01648397 4.03296795 1.1848834 9.19248663 1.1875 13.625 C1.19974609 14.69363281 1.21199219 15.76226562 1.22460938 16.86328125 C1.23582278 22.94094427 0.78184473 28.18259388 -1 34 C-1.33 34 -1.66 34 -2 34 C-1.67 23.44 -1.34 12.88 -1 2 C-2.98 2 -4.96 2 -7 2 C-4 0 -4 0 0 0 Z " fill="#5C7B95" transform="translate(418,162)"/>
<path d="M0 0 C3.48992934 2.04517365 6.82395349 4.22552059 10.125 6.5625 C12.73337452 8.40580418 15.34220742 10.22813828 18 12 C18 12.99 18 13.98 18 15 C15.6568787 14.74438677 13.32156597 14.40729228 11 14 C10.67 13.34 10.34 12.68 10 12 C9.01 11.67 8.02 11.34 7 11 C6.33333333 9.33333333 5.66666667 7.66666667 5 6 C4.01 5.67 3.02 5.34 2 5 C1.34 4.34 0.68 3.68 0 3 C0 2.01 0 1.02 0 0 Z " fill="#3E4B69" transform="translate(234,232)"/>
<path d="M0 0 C3.56660516 0.61141803 6.65415459 1.64357619 10 3 C10.66 3 11.32 3 12 3 C12 3.66 12 4.32 12 5 C12.928125 5.4640625 12.928125 5.4640625 13.875 5.9375 C15.25 6.625 16.625 7.3125 18 8 C18 9.32 18 10.64 18 12 C13.20002081 11.7000013 10.39328433 9.25737339 6.76953125 6.375 C5.03978229 4.93836349 5.03978229 4.93836349 3 4 C3 3.34 3 2.68 3 2 C2.01 1.67 1.02 1.34 0 1 C0 0.67 0 0.34 0 0 Z " fill="#485C81" transform="translate(163,228)"/>
<path d="M0 0 C0.66 0.33 1.32 0.66 2 1 C1.67 1.66 1.34 2.32 1 3 C1.66 3.33 2.32 3.66 3 4 C1.68 4.33 0.36 4.66 -1 5 C-1.33 6.65 -1.66 8.3 -2 10 C-3.36125 9.62875 -3.36125 9.62875 -4.75 9.25 C-8.06067033 8.62731081 -8.06067033 8.62731081 -10.3125 10.8125 C-12.02170944 12.8832327 -12.02170944 12.8832327 -13 15 C-14.32 14.34 -15.64 13.68 -17 13 C-11.37992202 8.60280936 -5.72554976 4.25906017 0 0 Z " fill="#313345" transform="translate(323,280)"/>
<path d="M0 0 C2.5999298 2.51027705 4.99091227 4.9863684 7 8 C7 8.66 7 9.32 7 10 C7.53625 10.226875 8.0725 10.45375 8.625 10.6875 C11.78500863 12.43382056 14.2676983 14.6402849 17 17 C16.67 17.66 16.34 18.32 16 19 C13.37886292 19 11.49064888 18.68707555 9 18 C8.938125 17.05125 8.87625 16.1025 8.8125 15.125 C8.4103125 13.578125 8.4103125 13.578125 8 12 C5.59047977 10.75285597 5.59047977 10.75285597 3 10 C0.70366176 6.55549263 0.45983515 4.06187717 0 0 Z " fill="#635E70" transform="translate(178,297)"/>
<path d="M0 0 C0.0582253 3.08325358 0.09367134 6.16636505 0.125 9.25 C0.14175781 10.12269531 0.15851563 10.99539063 0.17578125 11.89453125 C0.18222656 12.73886719 0.18867188 13.58320313 0.1953125 14.453125 C0.20578613 15.22817383 0.21625977 16.00322266 0.22705078 16.80175781 C-0.02673444 19.25883539 -0.77555848 20.87311542 -2 23 C-3.02255639 15.58646617 -3.02255639 15.58646617 -2.875 11.75 C-3.02325619 8.48836372 -4.02284068 7.49294001 -6 5 C-4.87312259 1.61936778 -3.78825335 0 0 0 Z " fill="#101324" transform="translate(356,260)"/>
<path d="M0 0 C2.9115281 1.37583975 5.48765528 2.95333027 8.109375 4.8203125 C8.86347656 5.35527344 9.61757812 5.89023438 10.39453125 6.44140625 C11.17183594 6.99699219 11.94914063 7.55257812 12.75 8.125 C13.54277344 8.68832031 14.33554688 9.25164062 15.15234375 9.83203125 C17.10334076 11.21888455 19.05247588 12.60827614 21 14 C20.67 14.66 20.34 15.32 20 16 C15.13869503 14.81431586 12.33807748 12.80786205 8.7421875 9.515625 C6.82418723 7.76878042 6.82418723 7.76878042 3.625 5.875 C1 4 1 4 0.125 1.75 C0.08375 1.1725 0.0425 0.595 0 0 Z " fill="#575D75" transform="translate(191,201)"/>
<path d="M0 0 C4.61673043 1.13062786 8.17466678 2.58687233 12.22265625 5.046875 C15.03618876 6.55567045 17.90745442 7.2426419 21 8 C20.67 8.99 20.34 9.98 20 11 C11.44473021 10.27189193 6.12708435 6.93153911 0 1 C0 0.67 0 0.34 0 0 Z " fill="#556183" transform="translate(205,381)"/>
<path d="M0 0 C0.81791016 0.2165625 0.81791016 0.2165625 1.65234375 0.4375 C10.60556363 2.64136951 18.10605596 2.35489771 27 0 C27 0.66 27 1.32 27 2 C25.68 2 24.36 2 23 2 C22.67 3.65 22.34 5.3 22 7 C21.01 7 20.02 7 19 7 C18.67 6.01 18.34 5.02 18 4 C17.11957031 4.09539062 16.23914063 4.19078125 15.33203125 4.2890625 C14.17058594 4.39992187 13.00914062 4.51078125 11.8125 4.625 C10.66394531 4.74101562 9.51539063 4.85703125 8.33203125 4.9765625 C4.96669584 5.00023426 2.98778294 4.47419799 0 3 C0 2.01 0 1.02 0 0 Z " fill="#5D779B" transform="translate(256,247)"/>
<path d="M0 0 C5.75 -0.125 5.75 -0.125 8 1 C9.35287257 1.05988535 10.7087116 1.0606214 12.0625 1.02734375 C12.85914063 1.01509766 13.65578125 1.00285156 14.4765625 0.99023438 C16.15894029 0.95507633 17.84124101 0.91601319 19.5234375 0.87304688 C20.32007813 0.86208984 21.11671875 0.85113281 21.9375 0.83984375 C22.66839844 0.82300537 23.39929688 0.80616699 24.15234375 0.78881836 C26 1 26 1 28 3 C18.20677002 6.14122471 9.45764589 4.71300172 0 1 C0 0.67 0 0.34 0 0 Z " fill="#6C91AE" transform="translate(252,231)"/>
<path d="M0 0 C8.26086957 -0.31772575 8.26086957 -0.31772575 11 2 C11.34740923 3.99760305 11.67966043 5.99787771 12 8 C13.93716038 10.35631825 13.93716038 10.35631825 16 12 C11.95775915 10.60411827 9.05851515 8.69435964 5.75 6 C4.87859375 5.29875 4.0071875 4.5975 3.109375 3.875 C1 2 1 2 0 0 Z " fill="#353549" transform="translate(211,314)"/>
<path d="M0 0 C2.6875 -0.3125 2.6875 -0.3125 5 0 C3.51185378 4.73599818 -0.39066351 6.41250461 -4.4375 8.75 C-5.11876953 9.16121094 -5.80003906 9.57242188 -6.50195312 9.99609375 C-11.59661804 13 -11.59661804 13 -15 13 C-15 12.34 -15 11.68 -15 11 C-13.865625 10.566875 -12.73125 10.13375 -11.5625 9.6875 C-10.386875 9.130625 -9.21125 8.57375 -8 8 C-7.67 7.01 -7.34 6.02 -7 5 C-5.68 5 -4.36 5 -3 5 C-2.525625 4.175 -2.05125 3.35 -1.5625 2.5 C-1.046875 1.675 -0.53125 0.85 0 0 Z " fill="#5886A7" transform="translate(296,220)"/>
<path d="M0 0 C2.3125 0.1875 2.3125 0.1875 4 1 C-0.23209586 5.50513431 -4.88695859 9.514292 -10 13 C-10.66 13 -11.32 13 -12 13 C-12 12.01 -12 11.02 -12 10 C-11.34 9.67 -10.68 9.34 -10 9 C-10 8.34 -10 7.68 -10 7 C-8.9171875 6.6596875 -8.9171875 6.6596875 -7.8125 6.3125 C-4.79613074 5.11265344 -4.79613074 5.11265344 -2.4375 2.3125 C-1.633125 1.549375 -0.82875 0.78625 0 0 Z " fill="#403D4C" transform="translate(317,319)"/>
<path d="M0 0 C0.66 0.33 1.32 0.66 2 1 C1.01 2.98 0.02 4.96 -1 7 C-1.99 7 -2.98 7 -4 7 C-4.598125 7.639375 -5.19625 8.27875 -5.8125 8.9375 C-8.50203596 11.47334819 -10.38286362 11.67116942 -14 12 C-14.33 12.99 -14.66 13.98 -15 15 C-16.32 14.67 -17.64 14.34 -19 14 C-18.29875 13.49210938 -17.5975 12.98421875 -16.875 12.4609375 C-11.21416422 8.35375502 -5.57781418 4.21932075 0 0 Z " fill="#546E8E" transform="translate(335,210)"/>
<path d="M0 0 C1.32 0.33 2.64 0.66 4 1 C4 1.99 4 2.98 4 4 C1.62890625 6.04296875 1.62890625 6.04296875 -1.4375 8.1875 C-2.44683594 8.90292969 -3.45617187 9.61835938 -4.49609375 10.35546875 C-7 12 -7 12 -8 12 C-8 10.02 -8 8.04 -8 6 C-6.68 6.33 -5.36 6.66 -4 7 C-4 6.01 -4 5.02 -4 4 C-2.68 3.67 -1.36 3.34 0 3 C0 2.01 0 1.02 0 0 Z " fill="#628EAF" transform="translate(340,188)"/>
<path d="M0 0 C2.0625 0.25 2.0625 0.25 4 1 C4.33 1.66 4.66 2.32 5 3 C6.65 3 8.3 3 10 3 C12.125 9.75 12.125 9.75 11 12 C6.71 8.7 2.42 5.4 -2 2 C-1.34 1.34 -0.68 0.68 0 0 Z " fill="#3F3F51" transform="translate(150,155)"/>
<path d="M0 0 C3.53819573 0.57926213 5.25028243 1.84323477 7.75 4.375 C8.36359375 4.98085938 8.9771875 5.58671875 9.609375 6.2109375 C11 8 11 8 11 11 C10.01 11.33 9.02 11.66 8 12 C6.02 8.535 6.02 8.535 4 5 C3.67 5 3.34 5 3 5 C2.67 6.98 2.34 8.96 2 11 C1.67 11 1.34 11 1 11 C0.67 8.36 0.34 5.72 0 3 C-0.99 3.495 -0.99 3.495 -2 4 C-1.34 2.68 -0.68 1.36 0 0 Z " fill="#628AAB" transform="translate(267,52)"/>
<path d="M0 0 C-0.58158896 4.03477342 -1.86756059 6.85241201 -4 10.3125 C-4.53625 11.19550781 -5.0725 12.07851563 -5.625 12.98828125 C-6.07875 13.65214844 -6.5325 14.31601562 -7 15 C-7.33 15 -7.66 15 -8 15 C-8.33 12.03 -8.66 9.06 -9 6 C-7.02 5.01 -5.04 4.02 -3 3 C-3.33 2.34 -3.66 1.68 -4 1 C-2 0 -2 0 0 0 Z " fill="#0C1C3F" transform="translate(281,362)"/>
<path d="M0 0 C1.65 0.33 3.3 0.66 5 1 C1.32442148 5.00972202 -2.18966896 7.45335415 -7 10 C-7.99 9.01 -8.98 8.02 -10 7 C-9.34 7 -8.68 7 -8 7 C-8 6.34 -8 5.68 -8 5 C-5.4385343 2.70351351 -4.52032428 2 -1 2 C-0.67 1.34 -0.34 0.68 0 0 Z " fill="#5689B1" transform="translate(347,246)"/>
<path d="M0 0 C0.66 0.33 1.32 0.66 2 1 C1.34 2.32 0.68 3.64 0 5 C0.99 5.33 1.98 5.66 3 6 C2.67 6.66 2.34 7.32 2 8 C-0.80078125 8.5625 -0.80078125 8.5625 -4.3125 9 C-8.29443115 9.49941354 -11.5228281 9.93945369 -15 12 C-12.86966547 8.49121372 -10.36840851 6.93277907 -6.78515625 5.015625 C-4.30404642 3.60405267 -2.1716844 1.84264131 0 0 Z " fill="#597EA0" transform="translate(307,230)"/>
<path d="M0 0 C0.79664063 0.34998047 0.79664063 0.34998047 1.609375 0.70703125 C0.949375 1.36703125 0.289375 2.02703125 -0.390625 2.70703125 C-1.380625 4.19203125 -1.380625 4.19203125 -2.390625 5.70703125 C-4.44921875 6.65625 -4.44921875 6.65625 -6.828125 7.39453125 C-8.00181641 7.77158203 -8.00181641 7.77158203 -9.19921875 8.15625 C-11.390625 8.70703125 -11.390625 8.70703125 -14.390625 8.70703125 C-14.390625 8.04703125 -14.390625 7.38703125 -14.390625 6.70703125 C-11.90625 4.9453125 -11.90625 4.9453125 -8.640625 3.01953125 C-7.57328125 2.37628906 -6.5059375 1.73304687 -5.40625 1.0703125 C-2.390625 -0.29296875 -2.390625 -0.29296875 0 0 Z " fill="#444652" transform="translate(142.390625,95.29296875)"/>
<path d="M0 0 C1.98 0 3.96 0 6 0 C3.5 2 3.5 2 1 4 C0.175 4.680625 -0.65 5.36125 -1.5 6.0625 C-7.87096774 11 -7.87096774 11 -13 11 C-11.36587557 9.29159719 -10.13093906 8.06546953 -8 7 C-7.7525 6.360625 -7.505 5.72125 -7.25 5.0625 C-5.44682285 2.0872577 -3.2618624 1.85092063 0 1 C0 0.67 0 0.34 0 0 Z " fill="#647A9E" transform="translate(321,387)"/>
<path d="M0 0 C0.33 1.32 0.66 2.64 1 4 C0.01 4.33 -0.98 4.66 -2 5 C-2.12375 5.5775 -2.2475 6.155 -2.375 6.75 C-3.66233075 11.3843907 -8.19498204 14.32239477 -12 17 C-11.67 15.02 -11.34 13.04 -11 11 C-10.01 10.67 -9.02 10.34 -8 10 C-8 9.34 -8 8.68 -8 8 C-6.625 6.375 -6.625 6.375 -5 5 C-4.34 5 -3.68 5 -3 5 C-2.690625 4.360625 -2.38125 3.72125 -2.0625 3.0625 C-1 1 -1 1 0 0 Z " fill="#537292" transform="translate(387,328)"/>
<path d="M0 0 C2 2 2 2 2.1953125 4.6015625 C2.17210938 5.59929687 2.14890625 6.59703125 2.125 7.625 C2.10695313 8.62789062 2.08890625 9.63078125 2.0703125 10.6640625 C2.03550781 11.82035156 2.03550781 11.82035156 2 13 C2.66 13 3.32 13 4 13 C4 18.28 4 23.56 4 29 C-0.44356862 20.11286276 -0.31671862 9.76549068 0 0 Z " fill="#736F7E" transform="translate(119,246)"/>
<path d="M0 0 C1.32 0.33 2.64 0.66 4 1 C4 1.66 4 2.32 4 3 C4.7425 3.2475 5.485 3.495 6.25 3.75 C9.20124062 5.09147301 10.84814974 6.60905526 13 9 C10.36 9 7.72 9 5 9 C4.731875 8.360625 4.46375 7.72125 4.1875 7.0625 C3.11332248 4.66868314 3.11332248 4.66868314 0 4 C0 2.68 0 1.36 0 0 Z " fill="#2D3040" transform="translate(124,214)"/>
<path d="M0 0 C1.32 0.33 2.64 0.66 4 1 C-1.28 4.96 -6.56 8.92 -12 13 C-12.66 12.01 -13.32 11.02 -14 10 C-13.38125 9.896875 -12.7625 9.79375 -12.125 9.6875 C-9.63473516 9.12474627 -9.63473516 9.12474627 -8 6 C-8.33 5.34 -8.66 4.68 -9 4 C-7.6078125 3.566875 -7.6078125 3.566875 -6.1875 3.125 C-2.90208333 2.1125 -2.90208333 2.1125 0 0 Z " fill="#7595B3" transform="translate(326,263)"/>
<path d="M0 0 C3.77693016 2.18882424 7.29573979 4.6028931 10.8125 7.1875 C11.78832031 7.90292969 12.76414063 8.61835938 13.76953125 9.35546875 C14.50558594 9.89816406 15.24164063 10.44085938 16 11 C14.68 11.33 13.36 11.66 12 12 C11.34 11.01 10.68 10.02 10 9 C7.69418521 7.98372853 7.69418521 7.98372853 5.0625 7.3125 C4.18722656 7.06113281 3.31195313 6.80976563 2.41015625 6.55078125 C-0.07538598 5.88860905 -0.07538598 5.88860905 -3 6 C-2 4 -1 2 0 0 Z " fill="#565F81" transform="translate(215,218)"/>
<path d="M0 0 C2.421875 1.12109375 2.421875 1.12109375 4.75 2.4375 C5.52859375 2.86933594 6.3071875 3.30117187 7.109375 3.74609375 C9 5 9 5 10 7 C6.24871951 6.27193262 2.52851673 5.45342078 -1.1875 4.5625 C-2.23292969 4.31628906 -3.27835937 4.07007812 -4.35546875 3.81640625 C-7 3 -7 3 -9 1 C-5.58648248 -1.14925177 -3.8414906 -1.02967789 0 0 Z " fill="#6891B6" transform="translate(397,96)"/>
<path d="M0 0 C1.88138672 0.05414063 1.88138672 0.05414063 3.80078125 0.109375 C5.22970703 0.17898437 5.22970703 0.17898437 6.6875 0.25 C6.6875 0.91 6.6875 1.57 6.6875 2.25 C7.3475 2.58 8.0075 2.91 8.6875 3.25 C7.54474609 3.23259766 7.54474609 3.23259766 6.37890625 3.21484375 C0.04909678 3.15952706 -6.03805549 3.4134074 -12.3125 4.25 C-8.22498346 0.27971625 -5.63030128 -0.21047855 0 0 Z " fill="#53718E" transform="translate(401.3125,232.75)"/>
<path d="M0 0 C4.52917571 1.26395601 7.44763929 2.94102273 11 6 C11.66 6.33 12.32 6.66 13 7 C13 7.66 13 8.32 13 9 C13.99 9.33 14.98 9.66 16 10 C14.375 10.6875 14.375 10.6875 12 11 C8.75 9.5625 8.75 9.5625 6 8 C6 6.68 6 5.36 6 4 C4.68 4.33 3.36 4.66 2 5 C2 4.34 2 3.68 2 3 C1.34 2.67 0.68 2.34 0 2 C0 1.34 0 0.68 0 0 Z " fill="#4B546C" transform="translate(153,174)"/>
<path d="M0 0 C-1.7241302 1.29838176 -3.45453232 2.58843747 -5.1875 3.875 C-6.63189453 4.95394531 -6.63189453 4.95394531 -8.10546875 6.0546875 C-10.71128675 7.80596599 -13.04792144 8.97459794 -16 10 C-14.125 5.25 -14.125 5.25 -13 3 C-11.02 3 -9.04 3 -7 3 C-6.67 2.01 -6.34 1.02 -6 0 C-3.50907189 -1.24546405 -2.58919267 -0.7767578 0 0 Z " fill="#7194B1" transform="translate(367,176)"/>
<path d="M0 0 C6.27 0.66 12.54 1.32 19 2 C19 2.33 19 2.66 19 3 C11.375 5.125 11.375 5.125 8 4 C7.67 4.66 7.34 5.32 7 6 C4.36 5.01 1.72 4.02 -1 3 C-0.67 2.01 -0.34 1.02 0 0 Z " fill="#121527" transform="translate(257,362)"/>
<path d="M0 0 C-2.64960955 3.63094642 -5.01824456 5.89851796 -9 8 C-8.67 5.69 -8.34 3.38 -8 1 C-8.66 1 -9.32 1 -10 1 C-10 0.34 -10 -0.32 -10 -1 C-6.06329512 -2.31223496 -3.87511856 -1.24296256 0 0 Z " fill="#5174A1" transform="translate(364,356)"/>
<path d="M0 0 C0.66 0.33 1.32 0.66 2 1 C1.01 2.485 1.01 2.485 0 4 C-0.66 4 -1.32 4 -2 4 C-2 4.66 -2 5.32 -2 6 C-5.36683915 8.43160605 -6.73350364 9 -11 9 C-11 8.01 -11 7.02 -11 6 C-9.21385682 4.96953278 -7.42089982 3.95086764 -5.625 2.9375 C-4.62726563 2.36902344 -3.62953125 1.80054688 -2.6015625 1.21484375 C-1.74304688 0.81394531 -0.88453125 0.41304687 0 0 Z " fill="#658CAB" transform="translate(372,230)"/>
<path d="M0 0 C1.64846769 0.44876616 3.29373455 0.90930488 4.9375 1.375 C5.85402344 1.63023437 6.77054688 1.88546875 7.71484375 2.1484375 C10 3 10 3 11 5 C11.33 4.01 11.66 3.02 12 2 C13.65 3.98 15.3 5.96 17 8 C16.01 8 15.02 8 14 8 C14 8.66 14 9.32 14 10 C10.67312232 8.45315734 7.75296022 6.54045021 4.75 4.4375 C3.85796875 3.81746094 2.9659375 3.19742188 2.046875 2.55859375 C1.37140625 2.04425781 0.6959375 1.52992188 0 1 C0 0.67 0 0.34 0 0 Z " fill="#45465A" transform="translate(174,175)"/>
<path d="M0 0 C5.75354583 -0.31964143 10.12644981 0.47545573 15.58984375 2.265625 C18.72608077 3.22123693 21.7460886 3.64631398 25 4 C25 4.33 25 4.66 25 5 C18.88909517 5.09945415 13.02596573 5.0712828 7 4 C7 3.34 7 2.68 7 2 C4.69 1.67 2.38 1.34 0 1 C0 0.67 0 0.34 0 0 Z " fill="#769BB1" transform="translate(318,81)"/>
<path d="M0 0 C-0.75 1.9375 -0.75 1.9375 -2 4 C-4.125 4.75 -4.125 4.75 -6 5 C-6 4.67 -6 4.34 -6 4 C-11.94 3.67 -17.88 3.34 -24 3 C-24 2.67 -24 2.34 -24 2 C-22.62328125 1.92652344 -22.62328125 1.92652344 -21.21875 1.8515625 C-13.15258617 1.41795884 -13.15258617 1.41795884 -5.25 -0.125 C-2 -1 -2 -1 0 0 Z " fill="#335887" transform="translate(258,390)"/>
<path d="M0 0 C4.10110762 1.40398279 6.98089159 3.37087038 10.3125 6.125 C11.19550781 6.84945313 12.07851562 7.57390625 12.98828125 8.3203125 C13.65214844 8.87460937 14.31601563 9.42890625 15 10 C14.01 10.495 14.01 10.495 13 11 C11.1875 10.1875 11.1875 10.1875 9 9 C8.13375 8.71125 7.2675 8.4225 6.375 8.125 C3.60080006 6.81090529 3.03631329 5.82630897 2 3 C1.01 3 0.02 3 -1 3 C-0.67 2.01 -0.34 1.02 0 0 Z " fill="#49495A" transform="translate(208,275)"/>
<path d="M0 0 C0.99 0 1.98 0 3 0 C2.44854729 5.23880078 1.57077907 9.97350697 0 15 C-2.52267376 11.21598936 -3.14044362 9.40443619 -2.6875 4.875 C-2 2 -2 2 0 0 Z " fill="#597BA0" transform="translate(414,267)"/>
<path d="M0 0 C0.66 0.33 1.32 0.66 2 1 C3.14555496 4.73778219 2.91832364 7.53680747 2.0625 11.3125 C1.86785156 12.19550781 1.67320312 13.07851562 1.47265625 13.98828125 C1.31667969 14.65214844 1.16070312 15.31601563 1 16 C0.01 16.33 -0.98 16.66 -2 17 C-1.38273804 11.32644329 -0.72054048 5.66138945 0 0 Z " fill="#5682A2" transform="translate(416,122)"/>
<path d="M0 0 C0.64324219 0.2165625 1.28648437 0.433125 1.94921875 0.65625 C9.43067478 2.96152033 16.20387059 3.33465102 24 3 C24.33 3.99 24.66 4.98 25 6 C16.64821927 5.47662174 8.3191895 4.92000449 0 4 C-0.33 3.01 -0.66 2.02 -1 1 C-0.67 0.67 -0.34 0.34 0 0 Z " fill="#63636F" transform="translate(254,308)"/>
<path d="M0 0 C0.99 0.33 1.98 0.66 3 1 C1.48328036 5.55015893 -2.16891053 7.50057264 -6 10 C-6.33 9.34 -6.66 8.68 -7 8 C-7.66 7.67 -8.32 7.34 -9 7 C-8.360625 6.896875 -7.72125 6.79375 -7.0625 6.6875 C-6.381875 6.460625 -5.70125 6.23375 -5 6 C-4.67 5.01 -4.34 4.02 -4 3 C-3.34 3 -2.68 3 -2 3 C-2 2.34 -2 1.68 -2 1 C-1.34 0.67 -0.68 0.34 0 0 Z " fill="#3F404E" transform="translate(343,299)"/>
<path d="M0 0 C0.66 0.33 1.32 0.66 2 1 C-0.12361445 5.02369055 -2.43010641 7.23333247 -6 10 C-7.76323505 12.12603185 -7.76323505 12.12603185 -9 14 C-9.80859375 11.80078125 -9.80859375 11.80078125 -10 9 C-7.91015625 6.54296875 -7.91015625 6.54296875 -5.0625 4.1875 C-4.12535156 3.39730469 -3.18820312 2.60710937 -2.22265625 1.79296875 C-1.48917969 1.20128906 -0.75570313 0.60960937 0 0 Z " fill="#627D9E" transform="translate(351,309)"/>
<path d="M0 0 C0 0.66 0 1.32 0 2 C-0.66 2 -1.32 2 -2 2 C-1.67 3.32 -1.34 4.64 -1 6 C-6.17358831 7.56183798 -9.76457131 8.44425619 -15 7 C-14.31292969 6.66226562 -13.62585938 6.32453125 -12.91796875 5.9765625 C-12.01691406 5.53054688 -11.11585938 5.08453125 -10.1875 4.625 C-9.29417969 4.18414062 -8.40085937 3.74328125 -7.48046875 3.2890625 C-1.15151515 0 -1.15151515 0 0 0 Z " fill="#535262" transform="translate(293,303)"/>
<path d="M0 0 C-0.33 0.99 -0.66 1.98 -1 3 C-4.375 3.625 -4.375 3.625 -8 4 C-8.66 3.34 -9.32 2.68 -10 2 C-10 2.66 -10 3.32 -10 4 C-13.3 3.67 -16.6 3.34 -20 3 C-20 2.67 -20 2.34 -20 2 C-13.25846717 0.74158054 -6.86515862 -0.26404456 0 0 Z " fill="#414351" transform="translate(175,90)"/>
<path d="M0 0 C1.98 0 3.96 0 6 0 C5.34 2.31 4.68 4.62 4 7 C2.35 6.67 0.7 6.34 -1 6 C-1 5.34 -1 4.68 -1 4 C-1.99 4 -2.98 4 -4 4 C-4 3.34 -4 2.68 -4 2 C-2.68 2 -1.36 2 0 2 C0 1.34 0 0.68 0 0 Z " fill="#2F5887" transform="translate(283,247)"/>
<path d="M0 0 C0.33 0.99 0.66 1.98 1 3 C2.65 3 4.3 3 6 3 C6.66 4.32 7.32 5.64 8 7 C3.05 7 -1.9 7 -7 7 C-7 6.67 -7 6.34 -7 6 C-4.69 6 -2.38 6 0 6 C0 4.02 0 2.04 0 0 Z " fill="#6F92B2" transform="translate(269,291)"/>
<path d="M0 0 C0.99 0 1.98 0 3 0 C1.49373726 3.83412335 -0.59268201 5.72845467 -4 8 C-6.32414661 8.85829481 -8.57949641 9.43046974 -11 10 C-11.66 9.34 -12.32 8.68 -13 8 C-12.39671875 7.84144531 -11.7934375 7.68289062 -11.171875 7.51953125 C-5.83825204 5.96245745 -3.28103902 4.66917091 0 0 Z " fill="#0A234C" transform="translate(259,213)"/>
<path d="M0 0 C0.66 0.33 1.32 0.66 2 1 C1.525625 1.5775 1.05125 2.155 0.5625 2.75 C-1.11158836 4.86210493 -1.11158836 4.86210493 -1.5 7.1875 C-1.7475 8.0846875 -1.7475 8.0846875 -2 9 C-2.99 9.33 -3.98 9.66 -5 10 C-6.32 9.01 -7.64 8.02 -9 7 C-6.03 4.69 -3.06 2.38 0 0 Z " fill="#587998" transform="translate(376,181)"/>
<path d="M0 0 C5.34844008 0.53484401 9.35796103 2.46690767 14 5 C14 5.66 14 6.32 14 7 C14.66 7.33 15.32 7.66 16 8 C9.411309 6.99899706 5.14914988 5.27269884 0 1 C0 0.67 0 0.34 0 0 Z " fill="#5D6F8D" transform="translate(246,289)"/>
<path d="M0 0 C9.59453303 6.15034169 9.59453303 6.15034169 13 10 C11.02 10 9.04 10 7 10 C6.33333333 8.66666667 5.66666667 7.33333333 5 6 C2.47266765 5.34444881 2.47266765 5.34444881 0 5 C0 3.35 0 1.7 0 0 Z " fill="#545361" transform="translate(138,223)"/>
<path d="M0 0 C1.3303125 0.4021875 1.3303125 0.4021875 2.6875 0.8125 C-1.19922813 3.99255028 -5.21202133 6.91804447 -9.3125 9.8125 C-10.3025 9.1525 -11.2925 8.4925 -12.3125 7.8125 C-11.3225 7.8125 -10.3325 7.8125 -9.3125 7.8125 C-8.9825 6.8225 -8.6525 5.8325 -8.3125 4.8125 C-4.29116229 -0.24289598 -4.29116229 -0.24289598 0 0 Z " fill="#809EBC" transform="translate(399.3125,211.1875)"/>
<path d="M0 0 C1.32 0.66 2.64 1.32 4 2 C0.80009492 4.74277578 -2.00499382 6.6302836 -6 8 C-6.33 6.68 -6.66 5.36 -7 4 C-5.02 3.67 -3.04 3.34 -1 3 C-0.67 2.01 -0.34 1.02 0 0 Z " fill="#3E3F50" transform="translate(299,332)"/>
<path d="M0 0 C-0.33 0.99 -0.66 1.98 -1 3 C-5.5304116 4.83462949 -10.30177726 5.51555572 -15 4 C-12.60939149 2.40626099 -10.69171821 1.34702924 -8.0625 0.3125 C-7.39347656 0.04050781 -6.72445312 -0.23148437 -6.03515625 -0.51171875 C-3.67169662 -1.0787676 -2.2807201 -0.76024003 0 0 Z " fill="#373A47" transform="translate(231,77)"/>
<path d="M0 0 C0.515625 0.268125 1.03125 0.53625 1.5625 0.8125 C4.66401415 2.32349407 7.82262806 3.65572726 11 5 C11 5.99 11 6.98 11 8 C8.6568787 7.74438677 6.32156597 7.40729228 4 7 C3.67 6.34 3.34 5.68 3 5 C2.01 4.67 1.02 4.34 0 4 C0 2.68 0 1.36 0 0 Z " fill="#0D142C" transform="translate(180,357)"/>
<path d="M0 0 C0.33 0.66 0.66 1.32 1 2 C1.99 2.33 2.98 2.66 4 3 C4.33 3.99 4.66 4.98 5 6 C6.49985609 7.66710346 6.49985609 7.66710346 8 9 C7.34 10.65 6.68 12.3 6 14 C2.44188906 9.59471979 0 5.75487737 0 0 Z " fill="#4A4658" transform="translate(128,290)"/>
<path d="M0 0 C0.33 0 0.66 0 1 0 C2.06442186 6.21392221 2.1381926 11.01306073 0 17 C-0.99 17.33 -1.98 17.66 -3 18 C-2.01 12.06 -1.02 6.12 0 0 Z " fill="#6B87A3" transform="translate(367,275)"/>
<path d="M0 0 C0.66 0.33 1.32 0.66 2 1 C-0.06312934 5.01767292 -1.90027691 7.05263153 -6 9 C-9 9 -9 9 -11 8 C-7.37 5.36 -3.74 2.72 0 0 Z " fill="#565664" transform="translate(336,271)"/>
<path d="M0 0 C1.46366342 0.39753821 2.9208935 0.81881384 4.375 1.25 C5.18710938 1.48203125 5.99921875 1.7140625 6.8359375 1.953125 C9.49968494 3.24172484 9.89036764 4.32443787 11 7 C11.66 7.66 12.32 8.32 13 9 C12.01 9 11.02 9 10 9 C9.21625 8.175 8.4325 7.35 7.625 6.5 C5.25894289 3.74145378 5.25894289 3.74145378 2.1875 3.6875 C1.465625 3.790625 0.74375 3.89375 0 4 C0 2.68 0 1.36 0 0 Z " fill="#243556" transform="translate(224,228)"/>
<path d="M0 0 C0.66 0.33 1.32 0.66 2 1 C-0.29805443 6.00164789 -2.97515156 7.0814215 -8 9 C-8.66 9.66 -9.32 10.32 -10 11 C-10.66 10.34 -11.32 9.68 -12 9 C-11.21753906 8.43410156 -10.43507813 7.86820313 -9.62890625 7.28515625 C-8.61699219 6.55167969 -7.60507812 5.81820312 -6.5625 5.0625 C-5.55316406 4.33160156 -4.54382813 3.60070312 -3.50390625 2.84765625 C-1.17707392 1.22678115 -1.17707392 1.22678115 0 0 Z " fill="#5F7D98" transform="translate(349,200)"/>
<path d="M0 0 C-0.598125 0.433125 -1.19625 0.86625 -1.8125 1.3125 C-6.32934705 4.79692487 -7.90673815 7.71700582 -10 13 C-11.2536419 9.48819545 -10.77956527 7.66535141 -9.25 4.3125 C-8.90453125 3.52488281 -8.5590625 2.73726562 -8.203125 1.92578125 C-6.01643134 -1.57434853 -3.52042886 -1.09254689 0 0 Z " fill="#4579A9" transform="translate(411,165)"/>
<path d="M0 0 C1.32 0.33 2.64 0.66 4 1 C2.23871656 2.36656457 0.46563912 3.71794085 -1.3125 5.0625 C-2.29863281 5.81660156 -3.28476562 6.57070312 -4.30078125 7.34765625 C-5.63689453 8.16556641 -5.63689453 8.16556641 -7 9 C-7.99 8.67 -8.98 8.34 -10 8 C-9.34 7.01 -8.68 6.02 -8 5 C-7.01 5 -6.02 5 -5 5 C-5 4.34 -5 3.68 -5 3 C-3.35 2.67 -1.7 2.34 0 2 C0 1.34 0 0.68 0 0 Z " fill="#7497B2" transform="translate(381,162)"/>
<path d="M0 0 C2.0625 0.4375 2.0625 0.4375 4 1 C3.34 2.98 2.68 4.96 2 7 C-0.31 7 -2.62 7 -5 7 C-1.125 1.125 -1.125 1.125 0 0 Z " fill="#486C93" transform="translate(339,319)"/>
<path d="M0 0 C0.66 0 1.32 0 2 0 C0.44584521 5.9057882 -2.59534467 10.97738893 -6 16 C-6.33 16 -6.66 16 -7 16 C-7 14.02 -7 12.04 -7 10 C-6.01 10 -5.02 10 -4 10 C-4 9.01 -4 8.02 -4 7 C-3.34 7 -2.68 7 -2 7 C-2 6.01 -2 5.02 -2 4 C-1.34 4 -0.68 4 0 4 C0 2.68 0 1.36 0 0 Z " fill="#676571" transform="translate(354,284)"/>
<path d="M0 0 C1.65 0 3.3 0 5 0 C5 6.93 5 13.86 5 21 C4.01 21 3.02 21 2 21 C1.91874718 17.42487611 2.13879232 14.44483071 3 11 C3.2143934 9.25309081 3.40107653 7.5025977 3.5625 5.75 C3.64628906 4.85796875 3.73007812 3.9659375 3.81640625 3.046875 C3.87699219 2.37140625 3.93757813 1.6959375 4 1 C2.68 0.67 1.36 0.34 0 0 Z " fill="#225182" transform="translate(263,273)"/>
<path d="M0 0 C0.66 0.33 1.32 0.66 2 1 C2 1.33 2 1.66 2 2 C2.66 2.33 3.32 2.66 4 3 C1.57235427 5.93872904 -0.27721329 6.46817333 -4 7 C-4.928125 7.185625 -5.85625 7.37125 -6.8125 7.5625 C-7.534375 7.706875 -8.25625 7.85125 -9 8 C-6.14723863 5.06799526 -3.34920216 2.35684596 0 0 Z " fill="#6480A6" transform="translate(334,323)"/>
<path d="M0 0 C1.95917659 0.0868748 3.91741871 0.19504512 5.875 0.3125 C7.51082031 0.39951172 7.51082031 0.39951172 9.1796875 0.48828125 C10.11039062 0.65714844 11.04109375 0.82601563 12 1 C12.66 1.99 13.32 2.98 14 4 C12.41676312 4.027193 10.83338938 4.04648306 9.25 4.0625 C7.92742187 4.07990234 7.92742187 4.07990234 6.578125 4.09765625 C4.2181162 4.00826198 2.25501476 3.66912821 0 3 C0 2.01 0 1.02 0 0 Z " fill="#7692AC" transform="translate(260,415)"/>
<path d="M0 0 C0.99 0.61875 1.98 1.2375 3 1.875 C6.89746801 4.12261959 10.6118123 5.07617101 15 6 C15 6.33 15 6.66 15 7 C13.88625 6.979375 12.7725 6.95875 11.625 6.9375 C8.16784079 6.73619282 8.16784079 6.73619282 6 8 C4.62437146 6.71034824 3.29233607 5.37310707 2 4 C2 3.34 2 2.68 2 2 C1.34 2 0.68 2 0 2 C0 1.34 0 0.68 0 0 Z " fill="#60606F" transform="translate(250,356)"/>
<path d="M0 0 C2.95409701 1.37154504 5.44008376 2.98863724 8 5 C7.67 5.66 7.34 6.32 7 7 C4.37886292 7 2.49064888 6.68707555 0 6 C-1.125 2.25 -1.125 2.25 0 0 Z " fill="#414351" transform="translate(187,309)"/>
<path d="M0 0 C4.81033104 2.54664585 8.32442148 4.99027798 12 9 C11.01 9 10.02 9 9 9 C9 8.34 9 7.68 9 7 C7.35 7.33 5.7 7.66 4 8 C4 7.34 4 6.68 4 6 C3.01 5.34 2.02 4.68 1 4 C1.33 3.34 1.66 2.68 2 2 C1.34 2 0.68 2 0 2 C0 1.34 0 0.68 0 0 Z " fill="#605F6E" transform="translate(155,236)"/>
<path d="M0 0 C10.55808656 0.77904328 10.55808656 0.77904328 15 3 C11.45325997 4.18224668 9.02477005 3.89329634 5.3125 3.5625 C4.13300781 3.46066406 2.95351563 3.35882813 1.73828125 3.25390625 C0.38283203 3.12822266 0.38283203 3.12822266 -1 3 C-0.67 2.01 -0.34 1.02 0 0 Z " fill="#6A93B4" transform="translate(300,75)"/>
<path d="M0 0 C-0.33 2.64 -0.66 5.28 -1 8 C-2.98 8 -4.96 8 -7 8 C-5.9363919 4.72054168 -4.1945074 0 0 0 Z " fill="#11172D" transform="translate(268,54)"/>
<path d="M0 0 C0 1.66666667 0 3.33333333 0 5 C-2.3125 6.6875 -2.3125 6.6875 -5 8 C-5.99 7.67 -6.98 7.34 -8 7 C-4.55384615 1.21538462 -4.55384615 1.21538462 -1.75 0.125 C-1.1725 0.08375 -0.595 0.0425 0 0 Z " fill="#34608F" transform="translate(298,352)"/>
<path d="M0 0 C4.75 0.75 4.75 0.75 7 3 C7.71927295 5.31765729 8.3909893 7.65095874 9 10 C4.71095765 8.4114658 2.67654474 5.56872632 0 2 C0 1.34 0 0.68 0 0 Z " fill="#585A67" transform="translate(189,294)"/>
<path d="M0 0 C2.10852713 3.47286822 2.10852713 3.47286822 1.5625 6.125 C1.376875 6.74375 1.19125 7.3625 1 8 C1.33 8.66 1.66 9.32 2 10 C1.01 9.67 0.02 9.34 -1 9 C-1 8.34 -1 7.68 -1 7 C-2.2065625 6.566875 -2.2065625 6.566875 -3.4375 6.125 C-6 5 -6 5 -7 3 C-6.21625 3.061875 -5.4325 3.12375 -4.625 3.1875 C-3.75875 3.125625 -2.8925 3.06375 -2 3 C-1.34 2.01 -0.68 1.02 0 0 Z " fill="#536B8D" transform="translate(148,209)"/>
<path d="M0 0 C-0.5625 1.875 -0.5625 1.875 -2 4 C-5.625 5.25 -5.625 5.25 -9 6 C-7.54266958 1.38512035 -7.54266958 1.38512035 -5.0625 -0.375 C-3 -1 -3 -1 0 0 Z M0 -1 C2 0 2 0 2 0 Z " fill="#365D83" transform="translate(385,179)"/>
<path d="M0 0 C2.31 0 4.62 0 7 0 C3.61831569 3.68006822 0.57478244 5.9785845 -4 8 C-4 7.01 -4 6.02 -4 5 C-2.68 4.34 -1.36 3.68 0 3 C0 2.01 0 1.02 0 0 Z " fill="#6995B3" transform="translate(392,152)"/>
<path d="M0 0 C2.92393881 0.62655832 5.44829129 1.4161808 8 3 C8.33 3.99 8.66 4.98 9 6 C10.65 6.33 12.3 6.66 14 7 C13.01 7.495 13.01 7.495 12 8 C12 8.66 12 9.32 12 10 C8.78727751 8.56006357 6.3793336 6.76981628 3.75 4.4375 C3.04359375 3.81746094 2.3371875 3.19742187 1.609375 2.55859375 C1.07828125 2.04425781 0.5471875 1.52992188 0 1 C0 0.67 0 0.34 0 0 Z " fill="#62636D" transform="translate(180,361)"/>
<path d="M0 0 C0.66 0.33 1.32 0.66 2 1 C1.67 2.65 1.34 4.3 1 6 C0.21625 6.144375 -0.5675 6.28875 -1.375 6.4375 C-3.96421018 6.87798925 -3.96421018 6.87798925 -6 8 C-6.66 7.34 -7.32 6.68 -8 6 C-5.36 4.02 -2.72 2.04 0 0 Z " fill="#587699" transform="translate(315,337)"/>
<path d="M0 0 C1.08667969 0.29197266 1.08667969 0.29197266 2.1953125 0.58984375 C2.74960937 0.74582031 3.30390625 0.90179688 3.875 1.0625 C3.875 1.3925 3.875 1.7225 3.875 2.0625 C2.225 2.3925 0.575 2.7225 -1.125 3.0625 C-1.125 3.7225 -1.125 4.3825 -1.125 5.0625 C-2.115 5.0625 -3.105 5.0625 -4.125 5.0625 C-4.455 5.7225 -4.785 6.3825 -5.125 7.0625 C-5.455 4.7525 -5.785 2.4425 -6.125 0.0625 C-3.57797384 -1.21101308 -2.6967055 -0.73941925 0 0 Z " fill="#0D132A" transform="translate(289.125,337.9375)"/>
<path d="M0 0 C1.98 0.99 1.98 0.99 4 2 C4.33 1.34 4.66 0.68 5 0 C6.32 0.66 7.64 1.32 9 2 C9 2.99 9 3.98 9 5 C9.33 5.99 9.66 6.98 10 8 C6.05205855 6.32971708 3.18203882 3.8204435 0 1 C0 0.67 0 0.34 0 0 Z " fill="#545463" transform="translate(198,304)"/>
<path d="M0 0 C0.99 0.33 1.98 0.66 3 1 C4.63207811 4.47911285 5.40091878 7.85451777 4.125 11.5 C3.75375 11.995 3.3825 12.49 3 13 C-0.42857143 4.57142857 -0.42857143 4.57142857 0 0 Z " fill="#605C6A" transform="translate(123,275)"/>
<path d="M0 0 C2.31 0 4.62 0 7 0 C7 0.66 7 1.32 7 2 C6.34 2 5.68 2 5 2 C4.67 2.99 4.34 3.98 4 5 C2.02 5 0.04 5 -2 5 C-1.34 3.35 -0.68 1.7 0 0 Z " fill="#5B86AC" transform="translate(365,170)"/>
<path d="M0 0 C6.51791392 -0.3540919 11.17521449 -0.03901852 17 3 C13.09366863 4.30211046 10.80461827 3.47812346 6.8125 2.5625 C5.54019531 2.27503906 4.26789063 1.98757812 2.95703125 1.69140625 C1.98121094 1.46324219 1.00539063 1.23507813 0 1 C0 0.67 0 0.34 0 0 Z " fill="#5C82A5" transform="translate(346,88)"/>
<path d="M0 0 C4.47014404 2.50328066 8.76946537 5.1108544 13 8 C12.67 8.66 12.34 9.32 12 10 C10.68 10 9.36 10 8 10 C7.6596875 9.0409375 7.6596875 9.0409375 7.3125 8.0625 C6.14749104 5.72806339 6.14749104 5.72806339 3.375 5.25 C2.59125 5.1675 1.8075 5.085 1 5 C1.33 4.01 1.66 3.02 2 2 C1.34 2 0.68 2 0 2 C0 1.34 0 0.68 0 0 Z " fill="#65606F" transform="translate(195,265)"/>
<path d="M0 0 C3.48864279 0.36089408 6.09032693 2.1410422 9 4 C8.34 4.66 7.68 5.32 7 6 C3.875 5.625 3.875 5.625 1 5 C1 4.34 1 3.68 1 3 C0.01 2.67 -0.98 2.34 -2 2 C-1.34 1.34 -0.68 0.68 0 0 Z " fill="#60809A" transform="translate(408,234)"/>
<path d="M0 0 C3.5786304 1.65167557 6.74820188 3.78286492 10 6 C9.67 6.99 9.34 7.98 9 9 C7.67870176 8.265611 6.36816829 7.51183106 5.0625 6.75 C4.33160156 6.33234375 3.60070312 5.9146875 2.84765625 5.484375 C0.68142682 3.74406383 0.36405249 2.70438996 0 0 Z " fill="#4E5575" transform="translate(191,201)"/>
<path d="M0 0 C0.66 0.33 1.32 0.66 2 1 C0.68139111 5.61513112 -1.21355437 9.09897612 -4 13 C-5.0169313 10.34501768 -5.13022151 9.30844625 -4.00390625 6.640625 C-3.52824219 5.85171875 -3.05257813 5.0628125 -2.5625 4.25 C-2.08941406 3.45078125 -1.61632812 2.6515625 -1.12890625 1.828125 C-0.75636719 1.22484375 -0.38382812 0.6215625 0 0 Z " fill="#5F7997" transform="translate(401,306)"/>
<path d="M0 0 C-1.98 0.99 -1.98 0.99 -4 2 C-4 2.66 -4 3.32 -4 4 C-5.98 4.33 -7.96 4.66 -10 5 C-7.00915607 -0.3019506 -6.01775424 -1.42525758 0 0 Z " fill="#0C1229" transform="translate(320,289)"/>
<path d="M0 0 C1.65 1.32 3.3 2.64 5 4 C4.67 4.99 4.34 5.98 4 7 C3.01 7.33 2.02 7.66 1 8 C0.34 7.01 -0.32 6.02 -1 5 C-1.66 4.67 -2.32 4.34 -3 4 C-2.01 2.68 -1.02 1.36 0 0 Z " fill="#0C1428" transform="translate(131,136)"/>
<path d="M0 0 C0 1.98 0 3.96 0 6 C-1.9375 5.1875 -1.9375 5.1875 -4 4 C-4.33 3.01 -4.66 2.02 -5 1 C-5.66 0.67 -6.32 0.34 -7 0 C-3.86650268 -1.04449911 -3.01031744 -0.93423645 0 0 Z " fill="#494C59" transform="translate(171,346)"/>
<path d="M0 0 C2.45823172 3.68734758 3.01242616 6.69699971 4 11 C1.5625 10.1875 1.5625 10.1875 -1 9 C-2.25541557 5.23375329 -1.37061958 3.62811066 0 0 Z " fill="#595863" transform="translate(174,286)"/>
<path d="M0 0 C0.66 0.33 1.32 0.66 2 1 C1.6875 2.875 1.6875 2.875 1 5 C-2 7 -2 7 -4.6875 6.625 C-5.450625 6.41875 -6.21375 6.2125 -7 6 C-5.625 4.5 -5.625 4.5 -4 3 C-3.34 3 -2.68 3 -2 3 C-2 2.34 -2 1.68 -2 1 C-1.34 0.67 -0.68 0.34 0 0 Z " fill="#637FA1" transform="translate(377,242)"/>
<path d="M0 0 C2.09749995 2.35968744 2.96905704 3.54616994 3.1875 6.75 C3.125625 7.4925 3.06375 8.235 3 9 C2.67 9 2.34 9 2 9 C1.67 11.31 1.34 13.62 1 16 C0.67 16 0.34 16 0 16 C-0.19504458 13.89651926 -0.38078496 11.79217415 -0.5625 9.6875 C-0.66691406 8.51574219 -0.77132812 7.34398437 -0.87890625 6.13671875 C-1 3 -1 3 0 0 Z " fill="#121429" transform="translate(121,243)"/>
<path d="M0 0 C3.56660516 0.61141803 6.65415459 1.64357619 10 3 C10.66 3 11.32 3 12 3 C12 3.66 12 4.32 12 5 C11.01 5 10.02 5 9 5 C8.67 5.66 8.34 6.32 8 7 C5.5 5.625 5.5 5.625 3 4 C3 3.34 3 2.68 3 2 C2.01 1.67 1.02 1.34 0 1 C0 0.67 0 0.34 0 0 Z " fill="#506385" transform="translate(163,228)"/>
<path d="M0 0 C0.66 0 1.32 0 2 0 C2 0.66 2 1.32 2 2 C2.66 2.33 3.32 2.66 4 3 C2.56705502 3.84114171 1.12845595 4.67265687 -0.3125 5.5 C-1.51326172 6.19609375 -1.51326172 6.19609375 -2.73828125 6.90625 C-5 8 -5 8 -8 8 C-8 7.34 -8 6.68 -8 6 C-6.865625 5.566875 -5.73125 5.13375 -4.5625 4.6875 C-2.7990625 3.8521875 -2.7990625 3.8521875 -1 3 C-0.67 2.01 -0.34 1.02 0 0 Z " fill="#638EAA" transform="translate(289,225)"/>
<path d="M0 0 C0.66 0 1.32 0 2 0 C3.7143618 1.95927063 5.38405168 3.95880212 7 6 C4.39417629 6.93065133 3.35801776 7.14917407 0.75 6.0625 C0.1725 5.711875 -0.405 5.36125 -1 5 C-0.67 3.35 -0.34 1.7 0 0 Z " fill="#355D91" transform="translate(241,400)"/>
<path d="M0 0 C1.32 0.33 2.64 0.66 4 1 C0.04 4.465 0.04 4.465 -4 8 C-5.32 7.34 -6.64 6.68 -8 6 C-6.35 6 -4.7 6 -3 6 C-2.67 4.68 -2.34 3.36 -2 2 C-1.34 2 -0.68 2 0 2 C0 1.34 0 0.68 0 0 Z " fill="#0A244C" transform="translate(268,378)"/>
<path d="M0 0 C0 0.66 0 1.32 0 2 C-0.598125 2.226875 -1.19625 2.45375 -1.8125 2.6875 C-4.56351888 4.33811133 -5.52484637 6.1972081 -7 9 C-8.32 8.34 -9.64 7.68 -11 7 C-9.54634731 5.82750647 -8.08692581 4.66216184 -6.625 3.5 C-5.40683594 2.52546875 -5.40683594 2.52546875 -4.1640625 1.53125 C-2 0 -2 0 0 0 Z " fill="#62626D" transform="translate(317,286)"/>
<path d="M0 0 C4.77314141 0.84231907 7.09969087 1.58846116 9.9375 5.625 C10.618125 6.73875 11.29875 7.8525 12 9 C8.98472262 7.59422879 6.4052059 5.93873852 3.75 3.9375 C3.04359375 3.41027344 2.3371875 2.88304687 1.609375 2.33984375 C1.07828125 1.89769531 0.5471875 1.45554687 0 1 C0 0.67 0 0.34 0 0 Z " fill="#76889E" transform="translate(228,276)"/>
<path d="M0 0 C4.455 1.98 4.455 1.98 9 4 C8.67 4.99 8.34 5.98 8 7 C5.625 6.75 5.625 6.75 3 6 C1.8125 4 1.8125 4 1 2 C0.34 1.67 -0.32 1.34 -1 1 C-0.67 0.67 -0.34 0.34 0 0 Z " fill="#25365F" transform="translate(183,198)"/>
<path d="M0 0 C2.73704754 2.73704754 3.16182449 5.26044774 4 9 C3.625 11.4375 3.625 11.4375 3 13 C0.95204577 11.0373772 0.05023362 9.5722693 -0.19921875 6.73046875 C-0.18858877 4.48045617 -0.12958525 2.24614438 0 0 Z " fill="#4C5D7B" transform="translate(120,186)"/>
<path d="M0 0 C4.12989477 4.26311718 4.61271765 7.28758534 5 13 C2.26097751 10.63448058 1.06829908 8.45142779 0 5 C-0.125 2.1875 -0.125 2.1875 0 0 Z " fill="#7694AE" transform="translate(413,110)"/>
<path d="M0 0 C0.99 0.33 1.98 0.66 3 1 C1.99088542 2.7578125 0.98177083 4.515625 -0.02734375 6.2734375 C-0.71719051 7.49798475 -1.37144538 8.74289077 -2 10 C-2.66 10 -3.32 10 -4 10 C-4.41176754 6.39703406 -4.1535853 5.21597933 -2 2.1875 C-1.34 1.465625 -0.68 0.74375 0 0 Z " fill="#11142A" transform="translate(129,103)"/>
<path d="M0 0 C2.64 0.33 5.28 0.66 8 1 C7.34 1.66 6.68 2.32 6 3 C7.65 3.33 9.3 3.66 11 4 C11 4.33 11 4.66 11 5 C8.03 5 5.06 5 2 5 C2 4.34 2 3.68 2 3 C1.01 2.67 0.02 2.34 -1 2 C-0.67 1.34 -0.34 0.68 0 0 Z " fill="#6A98C1" transform="translate(343,86)"/>
<path d="M0 0 C0.66 0.66 1.32 1.32 2 2 C1.34 2 0.68 2 0 2 C-0.20625 2.61875 -0.4125 3.2375 -0.625 3.875 C-2.54775888 6.84653645 -4.66594527 7.13024659 -8 8 C-8.66 7.34 -9.32 6.68 -10 6 C-9.36191406 5.65066406 -8.72382813 5.30132812 -8.06640625 4.94140625 C-7.24011719 4.48636719 -6.41382813 4.03132813 -5.5625 3.5625 C-4.73878906 3.11003906 -3.91507812 2.65757812 -3.06640625 2.19140625 C-1.07691202 1.16337603 -1.07691202 1.16337603 0 0 Z " fill="#386192" transform="translate(268,382)"/>
<path d="M0 0 C2.49361571 1.20381448 4.68143083 2.45428722 7 4 C4.69 5.65 2.38 7.3 0 9 C0.185625 8.2575 0.37125 7.515 0.5625 6.75 C0.99203108 4.05009037 0.85122974 2.55368923 0 0 Z " fill="#5D7BA2" transform="translate(330,376)"/>
<path d="M0 0 C1.32 0.66 2.64 1.32 4 2 C3.030625 2.61875 2.06125 3.2375 1.0625 3.875 C-2.02835362 5.65678846 -2.02835362 5.65678846 -3 8 C-3.66 7.67 -4.32 7.34 -5 7 C-4.60196439 4.11424181 -4.20990931 3.17810487 -1.9375 1.25 C-1.298125 0.8375 -0.65875 0.425 0 0 Z " fill="#12152C" transform="translate(306,294)"/>
<path d="M0 0 C0.66 0.33 1.32 0.66 2 1 C2.625 3.0625 2.625 3.0625 3 5 C2.34 5 1.68 5 1 5 C1.33 6.65 1.66 8.3 2 10 C-1.3556206 7.7629196 -1.19278041 7.57482962 -2 4 C-2.66 3.67 -3.32 3.34 -4 3 C-2.68 2.01 -1.36 1.02 0 0 Z " fill="#3F455A" transform="translate(349,262)"/>
<path d="M0 0 C0.556875 0.28875 1.11375 0.5775 1.6875 0.875 C4.00808578 2.06620729 4.00808578 2.06620729 6.625 2.875 C9.39919994 4.18909471 9.96368671 5.17369103 11 8 C6.01780786 6.72548573 3.37464528 4.87091665 0 1 C0 0.67 0 0.34 0 0 Z " fill="#32486B" transform="translate(127,200)"/>
<path d="M0 0 C4.43458973 1.3937282 6.87378374 3.60582235 10 7 C6.20696275 5.99806563 3.28463659 5.18975773 0 3 C0 2.01 0 1.02 0 0 Z " fill="#6A6F81" transform="translate(169,185)"/>
<path d="M0 0 C0.66 0 1.32 0 2 0 C2 0.66 2 1.32 2 2 C2.99 2 3.98 2 5 2 C5 3.98 5 5.96 5 8 C3.02 6.35 1.04 4.7 -1 3 C-0.67 2.01 -0.34 1.02 0 0 Z " fill="#484A57" transform="translate(156,334)"/>
<path d="M0 0 C0.763125 0.350625 1.52625 0.70125 2.3125 1.0625 C5.04759379 2.32360884 5.04759379 2.32360884 8 1 C8.33 1.99 8.66 2.98 9 4 C9.66 4.33 10.32 4.66 11 5 C10.67 5.66 10.34 6.32 10 7 C5.56541027 5.6062718 3.12621626 3.39417765 0 0 Z " fill="#615F6F" transform="translate(240,336)"/>
<path d="M0 0 C7.50769231 1.47692308 7.50769231 1.47692308 10 4.125 C10.495 5.053125 10.495 5.053125 11 6 C6.48986609 5.46939601 3.61621781 3.69113883 0 1 C0 0.67 0 0.34 0 0 Z " fill="#5C6F8D" transform="translate(206,260)"/>
<path d="M0 0 C4.455 0.99 4.455 0.99 9 2 C9 2.66 9 3.32 9 4 C6.21176345 5.0326802 5.1322726 5.04509293 2.25 4.0625 C1.5075 3.711875 0.765 3.36125 0 3 C0 2.01 0 1.02 0 0 Z " fill="#505871" transform="translate(256,247)"/>
<path d="M0 0 C0.33 0.66 0.66 1.32 1 2 C0.34 2 -0.32 2 -1 2 C-1.33 2.66 -1.66 3.32 -2 4 C-2.33 3.01 -2.66 2.02 -3 1 C-4.65 1.33 -6.3 1.66 -8 2 C-8.66 1.01 -9.32 0.02 -10 -1 C-6.02972626 -2.32342458 -3.88343142 -1.36639254 0 0 Z " fill="#2E3147" transform="translate(154,234)"/>
<path d="M0 0 C0.66 0 1.32 0 2 0 C0.6581656 4.02550319 -1.4227573 4.88285636 -5 7 C-5.66 7 -6.32 7 -7 7 C-7 6.01 -7 5.02 -7 4 C-6.34 4 -5.68 4 -5 4 C-5 3.34 -5 2.68 -5 2 C-3.35 2 -1.7 2 0 2 C0 1.34 0 0.68 0 0 Z " fill="#7397B3" transform="translate(325,202)"/>
<path d="M0 0 C1.67542976 0.28604898 3.34385343 0.61781233 5 1 C5.66 2.98 6.32 4.96 7 7 C3.08597051 5.73058503 1.20927127 4.48832306 -1 1 C-0.67 0.67 -0.34 0.34 0 0 Z " fill="#444550" transform="translate(133,143)"/>
<path d="M0 0 C0 3.51716303 -0.82445585 4.37121748 -3 7 C-4.32 6.34 -5.64 5.68 -7 5 C-4.53846154 1.18461538 -4.53846154 1.18461538 -1.8125 0.25 C-1.214375 0.1675 -0.61625 0.085 0 0 Z " fill="#36628E" transform="translate(311,343)"/>
<path d="M0 0 C-0.33 0.66 -0.66 1.32 -1 2 C-3.5625 2.625 -3.5625 2.625 -6 3 C-5.67 3.99 -5.34 4.98 -5 6 C-6.65 6 -8.3 6 -10 6 C-8.09258661 0.27775983 -5.91019817 -0.39401321 0 0 Z " fill="#0E1128" transform="translate(313,323)"/>
<path d="M0 0 C0.66 1.32 1.32 2.64 2 4 C2.99 5.485 2.99 5.485 4 7 C1.36 7.33 -1.28 7.66 -4 8 C-2.68 5.36 -1.36 2.72 0 0 Z " fill="#5F81A0" transform="translate(363,293)"/>
<path d="M0 0 C4.95 0 9.9 0 15 0 C15 0.33 15 0.66 15 1 C13.06685873 1.41659944 11.12819653 1.80764837 9.1875 2.1875 C8.10855469 2.40792969 7.02960938 2.62835938 5.91796875 2.85546875 C4.47357422 2.92701172 4.47357422 2.92701172 3 3 C2.01 2.01 1.02 1.02 0 0 Z " fill="#1A2E57" transform="translate(259,251)"/>
<path d="M0 0 C0.66 0 1.32 0 2 0 C2.66 1.65 3.32 3.3 4 5 C4.66 5 5.32 5 6 5 C5.67 5.99 5.34 6.98 5 8 C2.36 6.02 -0.28 4.04 -3 2 C-2.01 1.67 -1.02 1.34 0 1 C0 0.67 0 0.34 0 0 Z " fill="#5A5A6B" transform="translate(226,209)"/>
<path d="M0 0 C-0.33 1.65 -0.66 3.3 -1 5 C-2.8125 5.625 -2.8125 5.625 -5 6 C-5.99 5.34 -6.98 4.68 -8 4 C-2.25 0 -2.25 0 0 0 Z " fill="#5C5C6A" transform="translate(257,62)"/>
<path d="M0 0 C-4.75 4.875 -4.75 4.875 -7 6 C-8 3 -8 3 -8 0 C-4.71303767 -0.79953138 -3.28976808 -1.09658936 0 0 Z " fill="#647E9A" transform="translate(355,365)"/>
<path d="M0 0 C0.93423645 3.01031744 1.04449911 3.86650268 0 7 C-1.98 7.33 -3.96 7.66 -6 8 C-5.34 7.67 -4.68 7.34 -4 7 C-3.34227572 3.97065509 -3.34227572 3.97065509 -3 1 C-2.01 0.67 -1.02 0.34 0 0 Z " fill="#356496" transform="translate(355,357)"/>
<path d="M0 0 C4.06815373 1.84916079 7.0094833 3.66442368 10 7 C5.545 6.01 5.545 6.01 1 5 C1.33 4.01 1.66 3.02 2 2 C1.34 2 0.68 2 0 2 C0 1.34 0 0.68 0 0 Z " fill="#797182" transform="translate(222,336)"/>
<path d="M0 0 C0.33 1.32 0.66 2.64 1 4 C0.01 4.33 -0.98 4.66 -2 5 C-2.73323796 7.01508358 -2.73323796 7.01508358 -3 9 C-3.66 9 -4.32 9 -5 9 C-5 7.68 -5 6.36 -5 5 C-4.34 5 -3.68 5 -3 5 C-2.5359375 4.0409375 -2.5359375 4.0409375 -2.0625 3.0625 C-1 1 -1 1 0 0 Z " fill="#6A85A1" transform="translate(387,328)"/>
<path d="M0 0 C0.144375 0.61875 0.28875 1.2375 0.4375 1.875 C0.93152225 4.03258322 0.93152225 4.03258322 2 6 C-1.36591866 4.55746343 -3.51047079 2.66735273 -6 0 C-3.50907189 -1.24546405 -2.58919267 -0.7767578 0 0 Z " fill="#5D606D" transform="translate(238,330)"/>
<path d="M0 0 C0.33 0.99 0.66 1.98 1 3 C1.66 3 2.32 3 3 3 C3 3.66 3 4.32 3 5 C3.66 5.33 4.32 5.66 5 6 C5 7.32 5 8.64 5 10 C4.34 10 3.68 10 3 10 C3 9.34 3 8.68 3 8 C2.34 8 1.68 8 1 8 C0.67 5.36 0.34 2.72 0 0 Z " fill="#151429" transform="translate(185,279)"/>
<path d="M0 0 C3.40667322 0.44824648 5.07914607 1.05276405 8 3 C8 3.66 8 4.32 8 5 C5.36 4.67 2.72 4.34 0 4 C-0.33 3.01 -0.66 2.02 -1 1 C-0.67 0.67 -0.34 0.34 0 0 Z " fill="#0C132A" transform="translate(214,283)"/>
<path d="M0 0 C3.7758544 0.52442422 6.22372155 1.32654667 9 4 C9 4.99 9 5.98 9 7 C8.34 7 7.68 7 7 7 C6.67 6.34 6.34 5.68 6 5 C5.175 4.505 4.35 4.01 3.5 3.5 C1 2 1 2 0 0 Z " fill="#5E6C88" transform="translate(197,253)"/>
<path d="M0 0 C6.875 3.75 6.875 3.75 8 6 C5.36 6 2.72 6 0 6 C0 4.02 0 2.04 0 0 Z " fill="#4B4A5F" transform="translate(129,217)"/>
<path d="M0 0 C0.66 0.33 1.32 0.66 2 1 C1.67 2.32 1.34 3.64 1 5 C0.34 5 -0.32 5 -1 5 C-1.33 5.66 -1.66 6.32 -2 7 C-2.33 6.01 -2.66 5.02 -3 4 C-3.66 3.67 -4.32 3.34 -5 3 C-2.625 1.4375 -2.625 1.4375 0 0 Z " fill="#4C7398" transform="translate(399,166)"/>
<path d="M0 0 C6.625 -0.125 6.625 -0.125 10 1 C9.67 1.99 9.34 2.98 9 4 C5.85262818 3.30058404 2.97411124 2.23921302 0 1 C0 0.67 0 0.34 0 0 Z " fill="#375B8F" transform="translate(216,388)"/>
<path d="M0 0 C2.00720923 0.28674418 4.0085944 0.61866701 6 1 C6.33 1.99 6.66 2.98 7 4 C4 5 4 5 1 4 C1 3.34 1 2.68 1 2 C0.34 1.67 -0.32 1.34 -1 1 C-0.67 0.67 -0.34 0.34 0 0 Z " fill="#111527" transform="translate(212,332)"/>
<path d="M0 0 C0 0.99 0 1.98 0 3 C1.9375006 5.18777466 1.9375006 5.18777466 4 7 C-0.43458973 5.6062718 -2.87378374 3.39417765 -6 0 C-3 -1 -3 -1 0 0 Z " fill="#676675" transform="translate(223,319)"/>
<path d="M0 0 C0.33 0.66 0.66 1.32 1 2 C0.34 2 -0.32 2 -1 2 C-1.28875 2.639375 -1.5775 3.27875 -1.875 3.9375 C-3 6 -3 6 -5 7 C-5.66 6.67 -6.32 6.34 -7 6 C-7 5.34 -7 4.68 -7 4 C-4.69 2.68 -2.38 1.36 0 0 Z " fill="#30577F" transform="translate(299,238)"/>
<path d="M0 0 C0.66 0.66 1.32 1.32 2 2 C1.67 2.99 1.34 3.98 1 5 C0.01 4.67 -0.98 4.34 -2 4 C-2.33 4.66 -2.66 5.32 -3 6 C-3.66 4.68 -4.32 3.36 -5 2 C-3.35 1.34 -1.7 0.68 0 0 Z " fill="#081330" transform="translate(150,234)"/>
<path d="M0 0 C3.36591866 1.44253657 5.51047079 3.33264727 8 6 C4.44219804 5.39009109 1.3171411 4.4216319 -2 3 C-1.34 2.01 -0.68 1.02 0 0 Z " fill="#616880" transform="translate(183,195)"/>
<path d="M0 0 C2.475 0.495 2.475 0.495 5 1 C5.33 2.65 5.66 4.3 6 6 C3.5625 5.25 3.5625 5.25 1 4 C0.1875 1.875 0.1875 1.875 0 0 Z " fill="#0D1329" transform="translate(208,196)"/>
<path d="M0 0 C4.51617599 -0.07654536 8.59085217 -0.10228696 13 1 C10.65887549 2.44977894 9.4203071 3.04314411 6.640625 2.7578125 C5.85171875 2.54898438 5.0628125 2.34015625 4.25 2.125 C3.45078125 1.92132813 2.6515625 1.71765625 1.828125 1.5078125 C0.92320312 1.25644531 0.92320312 1.25644531 0 1 C0 0.67 0 0.34 0 0 Z " fill="#82A3BB" transform="translate(361,90)"/>
<path d="M0 0 C0.763125 0.20625 1.52625 0.4125 2.3125 0.625 C0 2.6875 0 2.6875 -2.6875 4.625 C-3.6775 4.295 -4.6675 3.965 -5.6875 3.625 C-5.6875 2.965 -5.6875 2.305 -5.6875 1.625 C-2.6875 -0.375 -2.6875 -0.375 0 0 Z " fill="#6480A0" transform="translate(280.6875,413.375)"/>
<path d="M0 0 C1.65 0 3.3 0 5 0 C1.98112756 3.48331435 -0.56909529 4.79157144 -5 6 C-4.67 5.01 -4.34 4.02 -4 3 C-2.68 3 -1.36 3 0 3 C0 2.01 0 1.02 0 0 Z " fill="#6D84A3" transform="translate(294,405)"/>
<path d="M0 0 C0 0.66 0 1.32 0 2 C-6.0546875 2.1953125 -6.0546875 2.1953125 -8 2 C-8.66 1.34 -9.32 0.68 -10 0 C-6.30458414 -0.95024979 -3.69541586 -0.95024979 0 0 Z " fill="#151626" transform="translate(272,348)"/>
<path d="M0 0 C0.66 0.99 1.32 1.98 2 3 C0.35 4.32 -1.3 5.64 -3 7 C-3.66 6.67 -4.32 6.34 -5 6 C-4.34 4.68 -3.68 3.36 -3 2 C-2.01 2 -1.02 2 0 2 C0 1.34 0 0.68 0 0 Z " fill="#51739C" transform="translate(373,343)"/>
<path d="M0 0 C3.60296594 -0.41176754 4.78402067 -0.1535853 7.8125 2 C8.534375 2.66 9.25625 3.32 10 4 C7 5 7 5 5.17578125 4.22265625 C3.45052083 3.1484375 1.72526042 2.07421875 0 1 C0 0.67 0 0.34 0 0 Z " fill="#515263" transform="translate(251,344)"/>
<path d="M0 0 C2.64 1.65 5.28 3.3 8 5 C6.02 5.99 6.02 5.99 4 7 C2 5.1875 2 5.1875 0 3 C0 2.01 0 1.02 0 0 Z " fill="#121125" transform="translate(228,323)"/>
<path d="M0 0 C0.66 0 1.32 0 2 0 C3.625 2 3.625 2 5 4 C4.67 4.66 4.34 5.32 4 6 C3.01 6 2.02 6 1 6 C-0.6875 4 -0.6875 4 -2 2 C-1.34 1.34 -0.68 0.68 0 0 Z " fill="#12142B" transform="translate(207,306)"/>
<path d="M0 0 C0.99 0 1.98 0 3 0 C3 0.66 3 1.32 3 2 C3.66 2.33 4.32 2.66 5 3 C5.59355614 5.64860427 5.74209269 8.29197322 6 11 C3.02753198 8.45217026 1.58464712 5.54659117 0 2 C0 1.34 0 0.68 0 0 Z " fill="#6F6B7D" transform="translate(134,304)"/>
<path d="M0 0 C1.65 0.33 3.3 0.66 5 1 C3.35 2.65 1.7 4.3 0 6 C-0.66 5.01 -1.32 4.02 -2 3 C-1.34 2.01 -0.68 1.02 0 0 Z " fill="#779CB8" transform="translate(347,246)"/>
<path d="M0 0 C0.66 0 1.32 0 2 0 C2 1.32 2 2.64 2 4 C2.66 4.66 3.32 5.32 4 6 C1.625 6.625 1.625 6.625 -1 7 C-1.66 6.34 -2.32 5.68 -3 5 C-2.34 5 -1.68 5 -1 5 C-0.67 3.35 -0.34 1.7 0 0 Z " fill="#5E91BC" transform="translate(351,240)"/>
<path d="M0 0 C3.057952 1.73559438 5.63379989 3.38472619 8 6 C5.125 6.1875 5.125 6.1875 2 6 C0 3 0 3 0 0 Z " fill="#5E667C" transform="translate(234,232)"/>
<path d="M0 0 C2.97 0.495 2.97 0.495 6 1 C4.3545622 2.68762851 2.68711423 4.3540349 1 6 C0.67 6 0.34 6 0 6 C0 4.02 0 2.04 0 0 Z " fill="#7C9EBB" transform="translate(332,194)"/>
<path d="M0 0 C3.375 -0.125 3.375 -0.125 7 0 C7.66 0.66 8.32 1.32 9 2 C8.67 2.66 8.34 3.32 8 4 C6.02 4 4.04 4 2 4 C1.34 2.68 0.68 1.36 0 0 Z " fill="#0E162D" transform="translate(146,152)"/>
<path d="M0 0 C0.33 0.66 0.66 1.32 1 2 C-1.31 3.32 -3.62 4.64 -6 6 C-6.33 4.35 -6.66 2.7 -7 1 C-3.535 0.505 -3.535 0.505 0 0 Z " fill="#0C142D" transform="translate(256,66)"/>
<path d="M0 0 C1.48117801 0.28127421 2.95993249 0.57533732 4.4375 0.875 C5.67306641 1.11863281 5.67306641 1.11863281 6.93359375 1.3671875 C7.61550781 1.57601563 8.29742187 1.78484375 9 2 C9.33 2.66 9.66 3.32 10 4 C7.8125 4.8125 7.8125 4.8125 5 5 C2.1875 2.5625 2.1875 2.5625 0 0 Z " fill="#59749B" transform="translate(210,385)"/>
<path d="M0 0 C0.66 0 1.32 0 2 0 C2.33 1.32 2.66 2.64 3 4 C1.35 5.32 -0.3 6.64 -2 8 C-2.66 7.34 -3.32 6.68 -4 6 C-3.34 6 -2.68 6 -2 6 C-2 5.34 -2 4.68 -2 4 C-1.34 4 -0.68 4 0 4 C0 2.68 0 1.36 0 0 Z " fill="#668BA8" transform="translate(344,368)"/>
<path d="M0 0 C0.66 0.33 1.32 0.66 2 1 C2 1.66 2 2.32 2 3 C-0.25 4.6875 -0.25 4.6875 -3 6 C-4.32 5.67 -5.64 5.34 -7 5 C-4.69 3.35 -2.38 1.7 0 0 Z " fill="#6D83A2" transform="translate(292,353)"/>
<path d="M0 0 C2.475 0.495 2.475 0.495 5 1 C5.33 2.65 5.66 4.3 6 6 C3.96166576 4.7260411 1.96147874 3.38938077 0 2 C0 1.34 0 0.68 0 0 Z " fill="#5C5A66" transform="translate(171,352)"/>
<path d="M0 0 C0.33 0.99 0.66 1.98 1 3 C-0.28965176 4.37562854 -1.62689293 5.70766393 -3 7 C-3.66 7 -4.32 7 -5 7 C-5 6.01 -5 5.02 -5 4 C-4.34 3.67 -3.68 3.34 -3 3 C-3 2.34 -3 1.68 -3 1 C-2.01 0.67 -1.02 0.34 0 0 Z " fill="#4D4958" transform="translate(310,325)"/>
<path d="M0 0 C1.9375 0.375 1.9375 0.375 4 1 C4.33 1.66 4.66 2.32 5 3 C2.69 3.33 0.38 3.66 -2 4 C-1.34 2.68 -0.68 1.36 0 0 Z " fill="#12152F" transform="translate(338,271)"/>
<path d="M0 0 C1.32 0.33 2.64 0.66 4 1 C4 1.66 4 2.32 4 3 C4.66 3 5.32 3 6 3 C5.67 3.99 5.34 4.98 5 6 C3.68 5.67 2.36 5.34 1 5 C0.67 3.35 0.34 1.7 0 0 Z " fill="#18162A" transform="translate(191,264)"/>
<path d="M0 0 C0.66 0.33 1.32 0.66 2 1 C1.01 2.98 0.02 4.96 -1 7 C-1.33 6.34 -1.66 5.68 -2 5 C-2.99 4.67 -3.98 4.34 -5 4 C-3.35 2.68 -1.7 1.36 0 0 Z " fill="#5A7C9C" transform="translate(314,225)"/>
<path d="M0 0 C-0.8125 1.9375 -0.8125 1.9375 -2 4 C-2.99 4.33 -3.98 4.66 -5 5 C-5.66 4.67 -6.32 4.34 -7 4 C-6.67 3.01 -6.34 2.02 -6 1 C-3.90006779 0.25486277 -2.22568901 0 0 0 Z " fill="#5D88AE" transform="translate(332,198)"/>
<path d="M0 0 C-0.66 2.31 -1.32 4.62 -2 7 C-2.99 6.34 -3.98 5.68 -5 5 C-5 4.01 -5 3.02 -5 2 C-2 0 -2 0 0 0 Z " fill="#55789C" transform="translate(394,170)"/>
<path d="M0 0 C0.33 0 0.66 0 1 0 C1 1.65 1 3.3 1 5 C1.66 5 2.32 5 3 5 C3 6.32 3 7.64 3 9 C1.68 8.67 0.36 8.34 -1 8 C-0.67 5.36 -0.34 2.72 0 0 Z " fill="#141831" transform="translate(121,123)"/>
<path d="M0 0 C-0.99 1.485 -0.99 1.485 -2 3 C-4.64 2.67 -7.28 2.34 -10 2 C-3.72972973 -1.24324324 -3.72972973 -1.24324324 0 0 Z " fill="#646670" transform="translate(214,82)"/>
<path d="M0 0 C1.258125 -0.020625 2.51625 -0.04125 3.8125 -0.0625 C4.52019531 -0.07410156 5.22789062 -0.08570312 5.95703125 -0.09765625 C8 0 8 0 11 1 C11 1.66 11 2.32 11 3 C9.741875 2.87625 8.48375 2.7525 7.1875 2.625 C6.12595703 2.52058594 6.12595703 2.52058594 5.04296875 2.4140625 C3 2 3 2 0 0 Z " fill="#6F8EA9" transform="translate(318,81)"/>
<path d="M0 0 C0.99 0 1.98 0 3 0 C2.67 3.63 2.34 7.26 2 11 C1.67 11 1.34 11 1 11 C0.67 8.36 0.34 5.72 0 3 C-0.99 3.495 -0.99 3.495 -2 4 C-1.34 2.68 -0.68 1.36 0 0 Z " fill="#65768A" transform="translate(267,52)"/>
<path d="M0 0 C2.97 0.495 2.97 0.495 6 1 C6.33 1.99 6.66 2.98 7 4 C7.99 4.33 8.98 4.66 10 5 C9.01 5.495 9.01 5.495 8 6 C6.0546875 5.0390625 6.0546875 5.0390625 3.875 3.625 C3.15054688 3.16351563 2.42609375 2.70203125 1.6796875 2.2265625 C1.12539062 1.82179688 0.57109375 1.41703125 0 1 C0 0.67 0 0.34 0 0 Z " fill="#7F93AC" transform="translate(241,406)"/>
<path d="M0 0 C0.66 0.33 1.32 0.66 2 1 C1.8125 2.875 1.8125 2.875 1 5 C-1.5625 6.25 -1.5625 6.25 -4 7 C-3.43628586 3.73045798 -2.50037734 2.17424117 0 0 Z " fill="#3B6090" transform="translate(356,306)"/>
<path d="M0 0 C0.33 0.66 0.66 1.32 1 2 C2.97888961 2.72693904 4.97954558 3.39816251 7 4 C6.67 4.66 6.34 5.32 6 6 C4.68 6 3.36 6 2 6 C2 5.01 2 4.02 2 3 C1.01 3 0.02 3 -1 3 C-0.67 2.01 -0.34 1.02 0 0 Z " fill="#0E132C" transform="translate(180,305)"/>
<path d="M0 0 C0.99 0.33 1.98 0.66 3 1 C2.1875 2.9375 2.1875 2.9375 1 5 C0.01 5.33 -0.98 5.66 -2 6 C-2 4.35 -2 2.7 -2 1 C-1.34 0.67 -0.68 0.34 0 0 Z " fill="#535463" transform="translate(343,299)"/>
<path d="M0 0 C1.65 0 3.3 0 5 0 C5.33 1.32 5.66 2.64 6 4 C3.03 3.505 3.03 3.505 0 3 C0 2.01 0 1.02 0 0 Z " fill="#30598A" transform="translate(269,252)"/>
<path d="M0 0 C0.33 0 0.66 0 1 0 C1.36923077 5.53846154 1.36923077 5.53846154 -0.5 7.875 C-1.2425 8.431875 -1.2425 8.431875 -2 9 C-2.99 8.67 -3.98 8.34 -5 8 C-4.19185349 6.66402348 -3.37836819 5.331275 -2.5625 4 C-2.11003906 3.2575 -1.65757812 2.515 -1.19140625 1.75 C-0.79824219 1.1725 -0.40507812 0.595 0 0 Z " fill="#4976A6" transform="translate(264,209)"/>
<path d="M0 0 C0.66 0.33 1.32 0.66 2 1 C1.67 1.99 1.34 2.98 1 4 C-0.84765625 4.73046875 -0.84765625 4.73046875 -3.0625 5.1875 C-3.79597656 5.34605469 -4.52945312 5.50460938 -5.28515625 5.66796875 C-6.13400391 5.83232422 -6.13400391 5.83232422 -7 6 C-4.74259377 3.66475218 -2.7194239 1.81294927 0 0 Z " fill="#7996AB" transform="translate(386,174)"/>
<path d="M0 0 C5.75 1.625 5.75 1.625 8 5 C6.02 5 4.04 5 2 5 C2 4.34 2 3.68 2 3 C1.34 2.67 0.68 2.34 0 2 C0 1.34 0 0.68 0 0 Z " fill="#646983" transform="translate(153,174)"/>
<path d="M0 0 C2.01822917 0.06510417 4.03645833 0.13020833 6.0546875 0.1953125 C6.0546875 0.8553125 6.0546875 1.5153125 6.0546875 2.1953125 C4.1171875 2.7578125 4.1171875 2.7578125 2.0546875 3.1953125 C1.7246875 2.8653125 1.3946875 2.5353125 1.0546875 2.1953125 C-0.61148365 2.15467418 -2.27919345 2.1525915 -3.9453125 2.1953125 C-1.9453125 0.1953125 -1.9453125 0.1953125 0 0 Z " fill="#1C2F57" transform="translate(143.9453125,172.8046875)"/>
<path d="M0 0 C-2.62647188 1.75098126 -5.28775382 3.38731308 -8 5 C-8 4.34 -8 3.68 -8 3 C-8.66 2.67 -9.32 2.34 -10 2 C-6.5980513 -0.09350689 -3.94727588 -0.17942163 0 0 Z " fill="#0E1023" transform="translate(150,95)"/>
<path d="M0 0 C4.31392226 0.4793247 6.16569547 1.7457985 9 5 C4.98525763 5 3.18024863 3.33218233 0 1 C0 0.67 0 0.34 0 0 Z " fill="#65839C" transform="translate(227,397)"/>
<path d="M0 0 C0.66 0.33 1.32 0.66 2 1 C1.67 1.66 1.34 2.32 1 3 C0.34 3 -0.32 3 -1 3 C-1.33 3.66 -1.66 4.32 -2 5 C-2 4.34 -2 3.68 -2 3 C-4.31 3.33 -6.62 3.66 -9 4 C-6.06195683 2.47657021 -3.13439441 1.07229283 0 0 Z " fill="#767C99" transform="translate(283,359)"/>
<path d="M0 0 C1.65 0 3.3 0 5 0 C3.35 1.98 1.7 3.96 0 6 C-1 3 -1 3 0 0 Z " fill="#597796" transform="translate(365,350)"/>
<path d="M0 0 C0.66 0.33 1.32 0.66 2 1 C1.67 1.99 1.34 2.98 1 4 C-2.5625 5.1875 -2.5625 5.1875 -6 6 C-4 4 -2 2 0 0 Z " fill="#768BA5" transform="translate(323,331)"/>
<path d="M0 0 C0.66 0 1.32 0 2 0 C2 0.99 2 1.98 2 3 C3.32 2.67 4.64 2.34 6 2 C6.33 2.99 6.66 3.98 7 5 C6.34 5.66 5.68 6.32 5 7 C3.29115995 5.37660195 1.62553283 3.70680947 0 2 C0 1.34 0 0.68 0 0 Z " fill="#0D112D" transform="translate(128,288)"/>
<path d="M0 0 C0.33 0 0.66 0 1 0 C1 1.65 1 3.3 1 5 C0.34 5 -0.32 5 -1 5 C-1 6.32 -1 7.64 -1 9 C-1.66 9 -2.32 9 -3 9 C-2.25 2.25 -2.25 2.25 0 0 Z " fill="#22222E" transform="translate(355,279)"/>
<path d="M0 0 C0.66 0.33 1.32 0.66 2 1 C1.34 2.65 0.68 4.3 0 6 C-0.99 5.67 -1.98 5.34 -3 5 C-2.625 3.0625 -2.625 3.0625 -2 1 C-1.34 0.67 -0.68 0.34 0 0 Z " fill="#101426" transform="translate(347,265)"/>
<path d="M0 0 C-0.33 0.99 -0.66 1.98 -1 3 C-1.66 2.67 -2.32 2.34 -3 2 C-3 2.99 -3 3.98 -3 5 C-4.65 5 -6.3 5 -8 5 C-3.16129032 0 -3.16129032 0 0 0 Z " fill="#68879F" transform="translate(292,242)"/>
<path d="M0 0 C0 0.66 0 1.32 0 2 C-0.9590625 2.1546875 -0.9590625 2.1546875 -1.9375 2.3125 C-2.618125 2.539375 -3.29875 2.76625 -4 3 C-4.33 3.99 -4.66 4.98 -5 6 C-6.32 5.67 -7.64 5.34 -9 5 C-7.87926138 4.16094435 -6.75325453 3.32892169 -5.625 2.5 C-4.99851562 2.0359375 -4.37203125 1.571875 -3.7265625 1.09375 C-2 0 -2 0 0 0 Z " fill="#6781A1" transform="translate(325,219)"/>
<path d="M0 0 C0.66 0.33 1.32 0.66 2 1 C0.35 2.65 -1.3 4.3 -3 6 C-3.99 5.34 -4.98 4.68 -6 4 C-5.01 4 -4.02 4 -3 4 C-2.67 3.01 -2.34 2.02 -2 1 C-1.34 0.67 -0.68 0.34 0 0 Z " fill="#6C8EAE" transform="translate(393,215)"/>
<path d="M0 0 C0.99 0.33 1.98 0.66 3 1 C2.67 2.65 2.34 4.3 2 6 C0.35 5.01 -1.3 4.02 -3 3 C-2.01 2.67 -1.02 2.34 0 2 C0 1.34 0 0.68 0 0 Z " fill="#3C3F50" transform="translate(235,215)"/>
<path d="M0 0 C0.66 0.33 1.32 0.66 2 1 C1.01 2.98 0.02 4.96 -1 7 C-1.33 6.34 -1.66 5.68 -2 5 C-2.99 4.67 -3.98 4.34 -5 4 C-3.35 2.68 -1.7 1.36 0 0 Z " fill="#6880A3" transform="translate(335,210)"/>
<path d="M0 0 C0.99 0.33 1.98 0.66 3 1 C1.35 2.65 -0.3 4.3 -2 6 C-2.99 5.67 -3.98 5.34 -5 5 C-4.67 4.34 -4.34 3.68 -4 3 C-3.01 3 -2.02 3 -1 3 C-0.67 2.01 -0.34 1.02 0 0 Z " fill="#7498B4" transform="translate(412,201)"/>
<path d="M0 0 C2.31 0.66 4.62 1.32 7 2 C7.33 3.65 7.66 5.3 8 7 C6.66144944 6.21718695 5.32926356 5.42348123 4 4.625 C3.2575 4.18414062 2.515 3.74328125 1.75 3.2890625 C1.1725 2.86367187 0.595 2.43828125 0 2 C0 1.34 0 0.68 0 0 Z " fill="#5381AA" transform="translate(401,101)"/>
<path d="M0 0 C5.75 1.625 5.75 1.625 8 5 C4.62537285 4.45276317 2.91765 3.9451 0 2 C0 1.34 0 0.68 0 0 Z " fill="#86A2BE" transform="translate(399,98)"/>
<path d="M0 0 C-0.33 0.99 -0.66 1.98 -1 3 C-4.3 2.67 -7.6 2.34 -11 2 C-11 1.67 -11 1.34 -11 1 C-7.27569643 0.30710631 -3.78916254 -0.11144596 0 0 Z " fill="#6B6D7C" transform="translate(166,91)"/>
<path d="M0 0 C2.97 0.33 5.94 0.66 9 1 C8.67 1.99 8.34 2.98 8 4 C6.35 4 4.7 4 3 4 C3 3.34 3 2.68 3 2 C2.01 1.34 1.02 0.68 0 0 Z " fill="#2D3145" transform="translate(181,88)"/>
<path d="M0 0 C-0.33 0.99 -0.66 1.98 -1 3 C-1.99 3 -2.98 3 -4 3 C-4 2.34 -4 1.68 -4 1 C-5.65 1.33 -7.3 1.66 -9 2 C-5.945634 -1.054366 -3.9532319 -1.22686507 0 0 Z " fill="#5E5E6D" transform="translate(231,77)"/>
<path d="M0 0 C4.75 0.75 4.75 0.75 7 3 C7 3.66 7 4.32 7 5 C3.34683329 3.75023244 2.21934164 3.32901247 0 0 Z " fill="#798DAC" transform="translate(217,390)"/>
<path d="M0 0 C0.66 0 1.32 0 2 0 C0.8141763 3.37503669 -0.27573689 5.64722731 -3 8 C-3 6.35 -3 4.7 -3 3 C-2.34 3 -1.68 3 -1 3 C-0.67 2.01 -0.34 1.02 0 0 Z " fill="#06234C" transform="translate(276,369)"/>
<path d="M0 0 C1.98 0 3.96 0 6 0 C6 1.32 6 2.64 6 4 C5.01 4 4.02 4 3 4 C1.3125 2 1.3125 2 0 0 Z " fill="#656775" transform="translate(192,371)"/>
<path d="M0 0 C1.32 0.33 2.64 0.66 4 1 C4 1.66 4 2.32 4 3 C2.02 3.66 0.04 4.32 -2 5 C-1.34 3.35 -0.68 1.7 0 0 Z " fill="#434454" transform="translate(281,344)"/>
<path d="M0 0 C3 2 3 2 4 5 C1.69 4.67 -0.62 4.34 -3 4 C-2.01 3.34 -1.02 2.68 0 2 C0 1.34 0 0.68 0 0 Z " fill="#0D132A" transform="translate(332,304)"/>
<path d="M0 0 C1.75 1.4375 1.75 1.4375 3 3 C2.67 3.66 2.34 4.32 2 5 C-2.875 3.25 -2.875 3.25 -4 1 C-2.1875 0.3125 -2.1875 0.3125 0 0 Z " fill="#5F749C" transform="translate(220,266)"/>
<path d="M0 0 C-1.25 1.5625 -1.25 1.5625 -3 3 C-5.1875 2.6875 -5.1875 2.6875 -7 2 C-7 1.34 -7 0.68 -7 0 C-2.25 -1.125 -2.25 -1.125 0 0 Z " fill="#5480A4" transform="translate(359,242)"/>
<path d="M0 0 C0.99 0 1.98 0 3 0 C3.33 1.65 3.66 3.3 4 5 C3.01 5.495 3.01 5.495 2 6 C1.01 5.01 0.02 4.02 -1 3 C-0.67 2.01 -0.34 1.02 0 0 Z " fill="#447AAF" transform="translate(252,226)"/>
<path d="M0 0 C2.25 0.25 2.25 0.25 4 1 C2.35 1.66 0.7 2.32 -1 3 C-1 3.66 -1 4.32 -1 5 C-1.99 4.67 -2.98 4.34 -4 4 C-2.25 1.9375 -2.25 1.9375 0 0 Z " fill="#7494B2" transform="translate(385,221)"/>
<path d="M0 0 C0 0.66 0 1.32 0 2 C0.66 2.33 1.32 2.66 2 3 C-0.875 3.625 -0.875 3.625 -4 4 C-4.66 3.34 -5.32 2.68 -6 2 C-3 0 -3 0 0 0 Z " fill="#213458" transform="translate(215,218)"/>
<path d="M0 0 C1.67542976 0.28604898 3.34385343 0.61781233 5 1 C4.01 1.33 3.02 1.66 2 2 C2 2.66 2 3.32 2 4 C1.01 4.33 0.02 4.66 -1 5 C-1 1 -1 1 0 0 Z " fill="#191B2E" transform="translate(214,81)"/>
</svg>
